<?xml version="1.0" standalone="no"?>
<!DOCTYPE svg PUBLIC "-//W3C//DTD SVG 1.1//EN" "http://www.w3.org/Graphics/SVG/1.1/DTD/svg11.dtd" >
<svg>
<metadata>
Created by FontForge 20120731 at Mon Jul  1 22:51:01 2019
 By www
Optima nova is a Trademark of Heidelberger Druckmaschinen AG which may be registered in certain jurisdictions, exclusively licensed through Linotype Library GmbH, a wholly owned subsidiary of Heidelberger Druckmaschinen AG.
</metadata>
<defs>
<font id="OptimaNovaLT-Bold" horiz-adv-x="480" >
  <font-face 
    font-family="Optima nova LT"
    font-weight="700"
    font-stretch="normal"
    units-per-em="1000"
    panose-1="0 0 0 0 0 0 0 0 0 0"
    ascent="800"
    descent="-200"
    x-height="476"
    cap-height="682"
    bbox="-226 -273 1110 916"
    underline-thickness="50"
    underline-position="-75"
    stemh="50"
    stemv="130"
    unicode-range="U+0020-00FF"
  />
<missing-glyph horiz-adv-x="210" 
 />
    <glyph glyph-name=".notdef" horiz-adv-x="210" 
 />
    <glyph glyph-name="space" unicode=" " horiz-adv-x="210" 
 />
    <glyph glyph-name="exclam" unicode="!" horiz-adv-x="334" 
d="M243 61c0 -42 -34 -77 -76 -77s-76 35 -76 77c0 41 34 76 76 76s76 -35 76 -76zM251 619c0 -62 -50 -186 -67 -415h-34c-17 229 -67 352 -67 414c0 58 34 80 84 80c49 0 84 -22 84 -79z" />
    <glyph glyph-name="quotedbl" unicode="&#x22;" horiz-adv-x="384" 
d="M279 451h-30c-32 181 -36 210 -36 232c0 28 22 46 51 46s51 -18 51 -46c0 -22 -4 -51 -36 -232zM135 451h-30c-32 181 -36 210 -36 232c0 28 22 46 51 46s51 -18 51 -46c0 -22 -4 -51 -36 -232z" />
    <glyph glyph-name="numbersign" unicode="#" horiz-adv-x="542" 
d="M514 526c-9 -32 -19 -85 -22 -108c-20 2 -66 4 -93 4l-34 -155c43 0 75 0 93 2c-9 -28 -18 -81 -22 -108c-19 2 -57 4 -92 4c-13 -62 -24 -124 -32 -166c-17 1 -24 1 -32 1c-9 0 -19 0 -29 -1c12 37 28 112 40 166h-120c-13 -50 -27 -127 -33 -166c-17 1 -24 1 -32 1
c-9 0 -19 0 -29 -1c12 37 31 122 41 166c-37 0 -63 0 -93 -2c9 32 19 82 22 108c19 -2 57 -4 92 -4l34 155c-27 0 -62 0 -93 -2c7 24 19 83 22 108c23 -2 65 -4 93 -4c11 53 19 92 25 135c8 -1 15 -1 23 -1c9 0 19 0 38 1c-13 -39 -23 -82 -33 -135h120c12 60 19 92 25 135
c8 -1 15 -1 23 -1c9 0 19 0 38 1c-13 -39 -23 -82 -33 -135c35 0 65 0 93 2zM346 422h-120l-34 -155h120z" />
    <glyph glyph-name="dollar" unicode="$" horiz-adv-x="556" 
d="M246 434v194c-45 -7 -76 -47 -76 -96c0 -42 23 -80 76 -98zM294 274v-223c48 7 85 45 85 108c0 54 -30 92 -85 115zM294 632v-216c114 -48 199 -92 199 -203c0 -121 -87 -195 -199 -210c0 -44 2 -83 5 -117c-9 1 -18 1 -29 1s-20 0 -29 -1c3 34 5 73 5 114
c-59 0 -141 12 -191 41c5 32 16 84 28 124l23 1c15 -78 66 -117 140 -117v242c-109 41 -180 77 -180 199c0 113 77 178 180 189c0 30 -2 60 -4 76c8 -1 17 -1 28 -1s20 0 29 1c-2 -8 -4 -43 -4 -73c63 0 130 -13 172 -33c-12 -26 -26 -70 -32 -105l-23 -1
c-11 52 -49 87 -118 89z" />
    <glyph glyph-name="percent" unicode="%" horiz-adv-x="776" 
d="M363 521c0 -97 -58 -167 -161 -167c-125 0 -160 89 -160 167c0 94 52 167 160 167c111 0 161 -71 161 -167zM203 656c-50 0 -60 -80 -60 -135c0 -52 10 -135 60 -135s61 81 61 135s-11 135 -61 135zM734 159c0 -97 -58 -167 -161 -167c-125 0 -160 89 -160 167
c0 94 52 167 160 167c111 0 161 -71 161 -167zM574 294c-50 0 -60 -80 -60 -135c0 -52 10 -135 60 -135s61 81 61 135s-11 135 -61 135zM161 -10l-47 21c115 147 421 567 502 687l49 -23c-102 -130 -405 -542 -504 -685z" />
    <glyph glyph-name="ampersand" unicode="&#x26;" horiz-adv-x="739" 
d="M429 553c0 37 -17 85 -69 85c-57 0 -72 -44 -72 -81c0 -48 32 -97 61 -134c52 23 80 71 80 130zM181 221c0 -89 56 -162 138 -162c43 0 90 19 111 41c-56 68 -139 173 -187 237c-32 -15 -62 -48 -62 -116zM532 197c35 42 76 124 89 189h15c11 -19 35 -41 50 -50
c-25 -47 -81 -131 -121 -175c43 -52 104 -116 147 -155l-4 -6c-67 0 -141 -1 -196 -5c-12 19 -31 43 -51 67c-52 -45 -113 -79 -198 -79c-136 0 -223 71 -223 195c0 117 91 169 175 196c-34 45 -60 95 -60 145c0 115 93 161 205 161c76 0 157 -37 157 -129
c0 -110 -89 -145 -144 -161c39 -51 110 -140 159 -193z" />
    <glyph glyph-name="quotesingle" unicode="'" horiz-adv-x="240" 
d="M135 451h-30c-32 181 -36 210 -36 232c0 28 22 46 51 46s51 -18 51 -46c0 -22 -4 -51 -36 -232z" />
    <glyph glyph-name="parenleft" unicode="(" horiz-adv-x="300" 
d="M269 -90l-25 -13c-133 104 -202 265 -202 441s69 337 201 441l26 -13c-78 -110 -117 -254 -117 -428s38 -318 117 -428z" />
    <glyph glyph-name="parenright" unicode=")" horiz-adv-x="300" 
d="M31 -90c79 110 117 254 117 428s-39 318 -117 428l26 13c132 -104 201 -265 201 -441s-69 -337 -202 -441z" />
    <glyph glyph-name="asterisk" unicode="*" horiz-adv-x="442" 
d="M259 567c40 -20 100 -44 138 -58c-6 -7 -14 -19 -21 -32c-7 -12 -14 -25 -17 -33c-30 27 -83 66 -119 91c2 -38 12 -107 19 -149c-9 1 -24 2 -38 2s-29 -1 -38 -2c9 40 16 105 20 149c-36 -24 -88 -65 -120 -91c-3 8 -10 21 -17 34c-7 12 -15 24 -21 31
c39 13 99 39 139 58c-40 19 -101 44 -139 58c6 7 14 19 21 32c7 12 14 25 17 33c31 -27 83 -66 119 -91c-2 38 -12 107 -19 149c9 -1 24 -2 38 -2s29 1 38 2c-9 -40 -16 -104 -19 -148c36 24 88 64 119 90c3 -8 10 -21 17 -34c7 -12 15 -24 21 -31c-39 -13 -99 -38 -138 -58
z" />
    <glyph glyph-name="plus" unicode="+" 
d="M443 271c-45 4 -127 5 -167 5h-9v-18c0 -43 1 -127 6 -172c0 0 -21 2 -32 2c-12 0 -32 -2 -32 -2c4 45 5 129 5 172v18h-12c-39 0 -120 -2 -165 -6c0 0 2 17 2 30c0 11 -2 30 -2 30c45 -4 123 -5 165 -5h12v18c0 45 -1 128 -6 173c0 0 19 -2 33 -2s31 2 31 2
c-4 -45 -5 -130 -5 -173v-18h9c45 0 122 1 167 6c0 0 -2 -18 -2 -30c0 -14 2 -30 2 -30z" />
    <glyph glyph-name="comma" unicode="," horiz-adv-x="260" 
d="M194 104c0 -14 -7 -31 -15 -44c-35 -54 -115 -178 -149 -229l-31 5l-2 2c28 82 64 207 79 267c5 22 17 42 52 42c28 0 66 -11 66 -43z" />
    <glyph glyph-name="hyphen" unicode="-" horiz-adv-x="365" 
d="M323 211h-281v96h281v-96z" />
    <glyph glyph-name="period" unicode="." horiz-adv-x="260" 
d="M206 61c0 -42 -34 -77 -76 -77s-76 35 -76 77c0 41 34 76 76 76s76 -35 76 -76z" />
    <glyph glyph-name="slash" unicode="/" horiz-adv-x="500" 
d="M195 149c-43 -87 -98 -200 -135 -281l-61 13c43 82 103 202 148 292l158 317c43 87 98 200 135 281l61 -13c-43 -82 -103 -202 -148 -292z" />
    <glyph glyph-name="zero" unicode="0" horiz-adv-x="670" 
d="M615 342c0 -187 -85 -359 -279 -359c-224 0 -280 166 -280 359c0 194 73 355 280 355c229 0 279 -161 279 -355zM460 347c0 172 -31 307 -124 307s-125 -123 -125 -307c0 -171 29 -317 125 -317c95 0 124 146 124 317z" />
    <glyph glyph-name="one" unicode="1" horiz-adv-x="410" 
d="M290 698l9 -4c-6 -70 -9 -178 -9 -267v-169c0 -93 2 -176 9 -260c-26 1 -55 2 -80 2c-23 0 -55 -1 -82 -2c8 84 12 264 12 381v215h-148v41c124 19 224 44 289 63z" />
    <glyph glyph-name="two" unicode="2" horiz-adv-x="550" 
d="M502 -2c-87 2 -174 3 -252 3c-82 0 -157 -1 -238 -3v40c256 219 316 346 316 464c0 72 -27 135 -102 135c-79 0 -114 -72 -119 -134l-25 -1c-8 34 -31 73 -45 89c35 58 118 106 225 106c133 0 223 -61 223 -181c0 -96 -53 -168 -153 -251c-62 -52 -119 -105 -158 -143
c33 -1 72 -1 96 -1c66 0 163 1 232 8c-1 -22 -1 -48 -1 -66c0 -17 0 -40 1 -65z" />
    <glyph glyph-name="three" unicode="3" horiz-adv-x="530" 
d="M481 199c0 -145 -125 -216 -272 -216c-71 0 -150 16 -192 42c8 24 20 81 27 122l24 1c10 -74 56 -110 118 -110c95 0 141 69 141 164c0 87 -48 132 -129 132c-13 0 -27 -1 -42 -4c1 9 1 23 1 32c0 8 0 20 -1 28c10 -1 22 -1 34 -1c103 0 127 66 127 138
c0 68 -33 115 -102 115c-63 0 -99 -48 -107 -103h-25c-9 31 -23 66 -39 90c45 41 114 68 195 68c108 0 217 -40 217 -154c0 -112 -81 -154 -151 -170v-4c83 -10 176 -48 176 -170z" />
    <glyph glyph-name="four" unicode="4" horiz-adv-x="576" 
d="M549 164c-27 2 -61 4 -104 4v-23c0 -53 3 -108 6 -147c-23 1 -48 2 -73 2c-26 0 -48 -1 -72 -2c5 41 7 96 7 147v23h-75c-62 0 -141 -1 -221 -3v45c95 139 234 352 309 473c17 -1 42 -2 58 -2c17 0 47 1 68 2c-6 -114 -7 -293 -7 -438c43 0 77 2 104 5
c-1 -25 -1 -36 -1 -42c0 -8 0 -20 1 -44zM313 245v321h-2c-52 -77 -159 -241 -209 -321h211z" />
    <glyph glyph-name="five" unicode="5" horiz-adv-x="534" 
d="M482 220c0 -167 -134 -237 -277 -237c-76 0 -150 19 -186 44c9 28 24 91 29 124l25 1c5 -69 46 -113 114 -113c84 0 143 57 143 162c0 94 -43 147 -130 147c-41 0 -81 -17 -102 -37l-18 9c7 62 9 133 9 184c0 57 0 133 -3 172l10 6c58 -3 112 -4 180 -4c60 0 136 1 181 4
c-1 -16 -2 -41 -2 -61c0 -17 1 -42 2 -65c-73 5 -219 7 -306 7c-5 -51 -10 -134 -10 -180c28 14 74 23 114 23c133 0 227 -64 227 -186z" />
    <glyph glyph-name="six" unicode="6" horiz-adv-x="610" 
d="M554 225c0 -133 -83 -242 -247 -242c-153 0 -249 92 -249 297c0 226 104 417 335 417c51 0 101 -6 130 -16c-7 -31 -16 -84 -16 -114l-25 -2c-8 43 -32 81 -89 81c-147 0 -184 -182 -188 -279h4c30 34 81 68 152 68c119 0 193 -82 193 -210zM410 207
c0 90 -23 164 -99 164c-80 0 -108 -88 -108 -151c0 -98 36 -188 105 -188c65 0 102 76 102 175z" />
    <glyph glyph-name="seven" unicode="7" horiz-adv-x="540" 
d="M518 645c-115 -197 -240 -432 -324 -599c-8 -15 -14 -31 -19 -46c-24 0 -83 -1 -115 -3l-4 3c126 204 265 433 338 560c-124 0 -230 -3 -353 -11c1 29 2 53 2 69c0 19 -1 43 -2 64c98 -5 236 -7 328 -7c52 0 113 1 148 3z" />
    <glyph glyph-name="eight" unicode="8" horiz-adv-x="610" 
d="M559 204c0 -149 -107 -221 -252 -221c-148 0 -256 67 -256 203c0 87 43 161 167 192v3c-68 16 -135 55 -135 147c0 98 89 169 224 169c156 0 226 -69 226 -157c0 -81 -49 -131 -136 -156v-3c74 -17 162 -59 162 -177zM401 525c0 69 -27 131 -93 131s-93 -62 -93 -131
c0 -66 27 -124 93 -124s93 58 93 124zM307 354c-73 0 -110 -65 -110 -162c0 -100 39 -159 110 -159c73 0 109 60 109 160c0 97 -36 161 -109 161z" />
    <glyph glyph-name="nine" unicode="9" horiz-adv-x="610" 
d="M552 400c0 -229 -105 -417 -330 -417c-45 0 -96 7 -149 24c5 27 13 80 16 117l25 2c10 -59 51 -87 105 -87c148 0 183 174 187 280h-4c-19 -28 -69 -63 -139 -63c-129 0 -207 74 -207 203c0 133 84 238 248 238c182 0 248 -119 248 -297zM408 476c0 90 -29 173 -104 173
c-68 0 -104 -71 -104 -170c0 -88 25 -167 100 -167c83 0 108 101 108 164z" />
    <glyph glyph-name="colon" unicode=":" horiz-adv-x="300" 
d="M226 398c0 -42 -34 -77 -76 -77s-76 35 -76 77c0 41 34 76 76 76s76 -35 76 -76zM226 77c0 -42 -34 -77 -76 -77s-76 35 -76 77c0 41 34 76 76 76s76 -35 76 -76z" />
    <glyph glyph-name="semicolon" unicode=";" horiz-adv-x="300" 
d="M226 398c0 -42 -34 -77 -76 -77s-76 35 -76 77c0 41 34 76 76 76s76 -35 76 -76zM211 104c0 -14 -7 -31 -15 -44c-35 -54 -115 -178 -149 -229l-31 5l-2 2c28 82 64 207 79 267c5 22 17 42 52 42c28 0 66 -11 66 -43z" />
    <glyph glyph-name="less" unicode="&#x3c;" 
d="M430 138c-13 -16 -24 -36 -31 -56c-99 64 -255 149 -370 210v12c115 61 271 146 370 210c7 -20 18 -40 31 -56c-87 -41 -248 -125 -307 -160c59 -35 220 -119 307 -160z" />
    <glyph glyph-name="equal" unicode="=" 
d="M443 340c-45 4 -131 5 -174 5h-60c-43 0 -127 -2 -172 -6c0 0 2 19 2 31c0 10 -2 32 -2 32c45 -4 129 -5 172 -5h60c45 0 129 2 174 6c0 0 -2 -23 -2 -33s2 -30 2 -30zM443 194c-45 4 -131 5 -174 5h-60c-43 0 -127 -2 -172 -6c0 0 2 21 2 32c0 10 -2 30 -2 31
c45 -4 129 -5 172 -5h60c45 0 129 2 174 6c0 0 -2 -22 -2 -32s2 -31 2 -31z" />
    <glyph glyph-name="greater" unicode="&#x3e;" 
d="M451 292c-115 -61 -271 -146 -370 -210c-6 19 -19 41 -31 56c87 41 247 125 306 160c-59 35 -219 119 -306 160c12 15 25 37 31 56c99 -64 255 -149 370 -210v-12z" />
    <glyph glyph-name="question" unicode="?" horiz-adv-x="410" 
d="M281 61c0 -42 -34 -77 -76 -77s-76 35 -76 77c0 41 34 76 76 76s76 -35 76 -76zM380 552c0 -64 -38 -110 -90 -156c-48 -42 -74 -66 -74 -103c0 -29 17 -49 48 -49c22 0 37 10 48 23l12 -6c-5 -15 -9 -33 -11 -47c-13 -7 -43 -14 -75 -14c-87 0 -139 44 -139 124
c0 56 31 97 76 141c52 50 73 73 73 111c0 43 -28 66 -66 66c-42 0 -69 -26 -79 -62h-22c-1 27 -6 61 -10 81c30 22 83 37 135 37c104 0 174 -49 174 -146z" />
    <glyph glyph-name="at" unicode="@" horiz-adv-x="1000" 
d="M378 130c0 -32 8 -64 41 -64c72 0 156 134 181 190c17 39 31 94 31 112c0 31 -10 72 -55 72c-115 0 -198 -218 -198 -310zM650 405c7 18 17 47 23 67c35 -5 77 -7 101 -6c-40 -81 -120 -314 -120 -383c0 -27 8 -43 36 -43c99 0 191 134 191 284c0 175 -84 323 -304 323
c-270 0 -418 -233 -418 -473c0 -234 134 -358 333 -358c151 0 291 60 387 181l7 -5l-8 -34c-63 -88 -213 -177 -398 -177c-194 0 -414 90 -414 392c0 258 173 505 508 505c261 0 363 -159 363 -328c0 -159 -112 -350 -300 -350c-54 0 -78 26 -78 71c0 26 14 78 19 92h-4
c-35 -51 -114 -163 -218 -163c-70 0 -87 56 -87 107c0 146 136 369 298 369c51 0 81 -30 83 -71z" />
    <glyph glyph-name="A" unicode="A" horiz-adv-x="662" 
d="M650 1l-3 -3c-35 1 -68 2 -92 2c-15 0 -40 -1 -71 -2c-15 58 -45 157 -72 238c-34 1 -84 1 -122 1c-39 0 -85 0 -116 -1c-30 -73 -67 -181 -82 -238c-11 1 -30 2 -43 2c-17 0 -35 -1 -52 -2l-3 3c111 234 211 461 301 682h105c75 -217 199 -559 250 -682zM394 292
c-19 59 -59 178 -90 259c-31 -68 -82 -190 -108 -259c26 -1 62 -1 91 -1c33 0 77 0 107 1z" />
    <glyph glyph-name="B" unicode="B" horiz-adv-x="612" 
d="M562 196c0 -160 -136 -198 -252 -198c-32 0 -106 2 -134 2c-18 0 -60 -1 -96 -2c5 83 8 212 8 302v100c0 90 -3 199 -8 282c36 -1 73 -2 96 -2c17 0 43 1 72 2c29 0 60 1 84 1c99 0 204 -22 204 -142c0 -98 -62 -156 -167 -175v-2c119 -11 193 -54 193 -168zM396 516
c0 99 -69 117 -128 117c-10 0 -28 -1 -40 -4c-3 -58 -4 -119 -4 -177v-66h37c72 0 135 26 135 130zM413 200c0 106 -54 134 -156 134h-33v-70c0 -60 1 -164 4 -210c18 -3 37 -5 58 -5c66 0 127 38 127 151z" />
    <glyph glyph-name="C" unicode="C" horiz-adv-x="689" 
d="M674 647c-9 -25 -21 -71 -28 -119l-24 -2c-21 75 -85 110 -173 110c-143 0 -243 -95 -243 -294c0 -178 82 -290 256 -290c71 0 142 25 185 77l12 -4c0 -30 -6 -71 -10 -83c-42 -30 -120 -57 -220 -57c-238 0 -379 124 -379 356c0 219 143 353 380 353
c111 0 198 -25 244 -47z" />
    <glyph glyph-name="D" unicode="D" horiz-adv-x="795" 
d="M745 354c0 -264 -200 -356 -378 -356c-49 0 -125 2 -170 2c-27 0 -79 -1 -117 -2c5 83 8 192 8 282v120c0 90 -3 199 -8 282c38 -1 85 -2 117 -2c48 0 119 2 170 2c242 0 378 -86 378 -328zM586 354c0 219 -106 272 -236 272c-38 0 -81 -4 -114 -8
c-3 -52 -5 -152 -5 -216v-117c0 -61 2 -167 5 -222c23 -5 60 -8 96 -8c117 0 254 50 254 299z" />
    <glyph glyph-name="E" unicode="E" horiz-adv-x="499" 
d="M188 1c-27 0 -85 -2 -108 -3c5 80 8 212 8 302v100c0 90 -3 202 -8 282c23 -1 76 -3 108 -3c66 0 195 1 261 3c-1 -19 -1 -30 -1 -38c0 -7 0 -19 1 -37c-43 8 -139 14 -217 14c-2 -49 -4 -127 -4 -203v-31c100 0 165 5 202 10c-1 -19 -1 -31 -1 -39c0 -7 0 -19 1 -37
c-37 5 -102 8 -202 8v-36c0 -86 2 -188 4 -234c71 0 150 4 222 17c-1 -20 -1 -32 -1 -40c0 -7 0 -18 1 -38c-31 1 -77 1 -125 2s-98 1 -141 1z" />
    <glyph glyph-name="F" unicode="F" horiz-adv-x="482" 
d="M80 682c23 -1 76 -3 108 -3c66 0 195 1 261 3c-1 -19 -1 -30 -1 -38c0 -7 0 -19 1 -37c-43 8 -139 14 -216 14c-2 -35 -4 -132 -4 -207v-27c99 0 164 5 201 10c-1 -19 -1 -31 -1 -39c0 -7 0 -19 1 -38c-37 6 -102 9 -201 9v-38c0 -89 3 -213 8 -293c-29 1 -54 2 -79 2
s-50 -1 -78 -2c5 80 8 212 8 302v100c0 90 -3 202 -8 282z" />
    <glyph glyph-name="G" unicode="G" horiz-adv-x="757" 
d="M697 302c-6 -59 -6 -118 -6 -163c0 -37 2 -80 4 -110l-3 -4c-64 -17 -165 -39 -255 -39c-238 0 -387 123 -387 355c0 219 143 356 380 355c120 -1 213 -29 250 -48c-10 -25 -22 -71 -29 -119l-24 -2c-21 75 -87 111 -178 111c-143 0 -243 -97 -243 -296
c0 -178 76 -291 238 -291c44 0 85 7 113 20c0 82 -4 162 -11 231c31 -1 51 -2 76 -2s55 1 75 2z" />
    <glyph glyph-name="H" unicode="H" horiz-adv-x="772" 
d="M692 -2c-28 1 -53 2 -78 2s-50 -1 -78 -2c5 80 8 202 8 292v45c-51 1 -110 1 -167 1c-61 0 -108 0 -149 -1v-45c0 -89 3 -212 8 -292c-28 1 -53 2 -78 2s-50 -1 -78 -2c5 80 8 212 8 302v100c0 90 -3 202 -8 282c28 -1 53 -2 78 -2s50 1 78 2c-5 -80 -8 -155 -8 -245v-35
c47 -1 93 -1 149 -1c54 0 127 0 167 1v34c0 90 -3 166 -8 246c28 -1 53 -2 78 -2s50 1 78 2c-5 -80 -8 -192 -8 -282v-100c0 -90 3 -222 8 -302z" />
    <glyph glyph-name="I" unicode="I" horiz-adv-x="316" 
d="M236 -2c-27 1 -53 2 -78 2s-50 -1 -78 -2c5 80 8 212 8 302v100c0 90 -3 202 -8 282c28 -1 53 -2 78 -2s50 1 78 2c-5 -80 -8 -192 -8 -282v-100c0 -89 3 -222 8 -302z" />
    <glyph glyph-name="J" unicode="J" horiz-adv-x="320" 
d="M243 682c-5 -80 -6 -192 -6 -282v-50c0 -76 3 -175 3 -222c0 -160 -55 -273 -250 -273c-8 0 -18 0 -29 1l-14 43l3 6c8 -2 18 -3 27 -3c96 0 119 76 119 242v256c0 90 -4 202 -8 282c28 -1 53 -2 78 -2s50 1 77 2z" />
    <glyph glyph-name="K" unicode="K" horiz-adv-x="646" 
d="M465 -4c-66 110 -154 238 -223 334c-5 7 -12 8 -18 8v-44c0 -89 3 -216 8 -296c-26 1 -51 2 -76 2s-50 -1 -78 -2c5 80 8 212 8 302v100c0 90 -3 202 -8 282c28 -1 53 -2 78 -2s50 1 76 2c-5 -80 -8 -183 -8 -273v-32c6 0 15 2 21 5c77 71 195 207 261 298
c28 0 85 1 112 2l3 -3c-84 -79 -194 -195 -266 -274c66 -104 205 -293 291 -403l-2 -3c-30 1 -59 1 -78 1c-25 0 -78 -2 -101 -4z" />
    <glyph glyph-name="L" unicode="L" horiz-adv-x="488" 
d="M191 1c-27 0 -88 -2 -111 -3c5 80 8 212 8 302v100c0 90 -3 202 -8 282c28 -1 53 -2 78 -2s50 1 78 2c-5 -80 -8 -192 -8 -282v-100c0 -90 1 -187 4 -241c71 0 161 4 245 17c-1 -20 -1 -32 -1 -40c0 -7 0 -18 1 -38c-49 1 -99 1 -148 2c-48 1 -95 1 -138 1z" />
    <glyph glyph-name="M" unicode="M" horiz-adv-x="923" 
d="M870 -2c-29 1 -56 2 -81 2s-52 -1 -77 -2c-1 131 -16 370 -29 501h-4c-60 -115 -162 -340 -218 -489h-77c-44 121 -131 312 -189 434c-10 21 -17 38 -23 55h-4c-19 -161 -38 -388 -38 -501c-15 1 -35 2 -46 2c-10 0 -29 -1 -46 -2c30 190 71 489 88 684h115
c66 -155 157 -364 222 -495h4c59 123 156 330 228 495h115c13 -224 41 -564 60 -684z" />
    <glyph glyph-name="N" unicode="N" horiz-adv-x="736" 
d="M557 241c7 -8 16 -18 26 -33l4 1v121c0 120 -7 272 -20 352c22 -1 40 -2 54 -2c13 0 31 1 41 2c-8 -80 -13 -232 -13 -352v-80c0 -102 2 -198 4 -253h-92c-80 105 -260 324 -381 462c-7 8 -16 18 -26 31l-3 -1v-139c0 -120 7 -272 20 -352c-17 1 -36 2 -49 2
s-34 -1 -47 -2c8 80 13 232 13 352v50c0 126 -3 241 -4 284h104c123 -149 268 -324 369 -443z" />
    <glyph glyph-name="O" unicode="O" horiz-adv-x="829" 
d="M779 340c0 -215 -140 -357 -365 -357c-224 0 -364 139 -364 357s140 357 364 357c230 0 365 -136 365 -357zM620 340c0 195 -76 303 -206 303s-205 -102 -205 -303c0 -196 75 -301 205 -301s206 104 206 301z" />
    <glyph glyph-name="P" unicode="P" horiz-adv-x="585" 
d="M550 508c0 -189 -159 -217 -279 -217h-43v-7c0 -74 3 -206 8 -286c-28 1 -53 2 -78 2s-50 -1 -78 -2c5 80 8 212 8 302v100c0 90 -3 202 -8 282c46 -1 123 -2 148 -2c21 0 46 1 69 2c23 0 44 1 58 1c81 0 195 -21 195 -175zM404 499c0 103 -55 131 -126 131
c-16 0 -32 -1 -47 -2c-2 -59 -3 -173 -3 -231v-56h31c78 0 145 24 145 158z" />
    <glyph glyph-name="Q" unicode="Q" horiz-adv-x="829" 
d="M580 28v-4c86 -43 211 -90 298 -119v-6c-41 -21 -100 -64 -130 -90c-65 44 -227 130 -320 176h-15c-221 0 -363 138 -363 355c0 219 141 357 364 357c230 0 364 -136 364 -357c0 -173 -93 -275 -198 -312zM413 643c-129 0 -204 -101 -204 -303c0 -197 75 -302 204 -302
s207 104 207 302c0 195 -76 303 -207 303z" />
    <glyph glyph-name="R" unicode="R" horiz-adv-x="617" 
d="M619 -1c-30 1 -52 1 -71 1c-25 0 -78 -2 -100 -4c-45 84 -148 251 -204 326c-3 3 -8 5 -20 5v-31c0 -89 3 -218 8 -298c-26 1 -49 2 -74 2s-50 -1 -78 -2c5 80 8 212 8 302v100c0 90 -1 202 -5 282c47 -1 93 -2 122 -2c17 0 43 1 69 2c26 0 52 1 67 1
c113 0 206 -37 206 -156c0 -131 -85 -175 -164 -185c48 -73 180 -260 239 -339zM401 509c0 104 -70 122 -130 122c-11 0 -28 -1 -42 -3c-3 -58 -5 -166 -5 -224v-38h31c74 0 146 18 146 143z" />
    <glyph glyph-name="S" unicode="S" horiz-adv-x="528" 
d="M479 211c0 -150 -120 -227 -263 -227c-69 0 -145 18 -181 37c3 33 12 90 23 129l23 2c20 -78 73 -110 143 -110c57 0 122 33 122 114c0 72 -50 100 -132 135c-74 32 -159 73 -159 195c0 151 130 209 248 209c57 0 116 -12 164 -33c-12 -34 -23 -79 -29 -117l-24 -2
c-12 54 -47 95 -116 95c-56 0 -115 -30 -115 -99c0 -62 38 -89 117 -123c100 -43 179 -87 179 -205z" />
    <glyph glyph-name="T" unicode="T" horiz-adv-x="540" 
d="M536 605c-55 7 -132 14 -193 14c-2 -40 -3 -91 -3 -118v-201c0 -89 3 -222 8 -302c-28 1 -53 2 -78 2s-50 -1 -78 -2c5 80 8 212 8 302v201c0 28 -1 79 -3 118c-61 0 -139 -7 -193 -14c1 18 1 32 1 41s0 23 -1 37c67 -3 179 -5 263 -5c86 0 198 2 269 5
c-1 -14 -1 -28 -1 -37s0 -23 1 -41z" />
    <glyph glyph-name="U" unicode="U" horiz-adv-x="741" 
d="M674 682c-7 -91 -12 -212 -12 -381c0 -83 -14 -144 -37 -187c-42 -80 -119 -131 -246 -131c-199 0 -299 81 -299 288c0 62 3 123 3 173c0 110 -2 180 -6 238c27 -1 50 -2 75 -2c27 0 56 1 88 2c-10 -85 -15 -214 -15 -358c0 -163 20 -271 179 -271c93 0 138 43 164 112
c16 46 19 104 19 168c0 144 -6 268 -14 349c24 -1 41 -2 53 -2s31 1 48 2z" />
    <glyph glyph-name="V" unicode="V" horiz-adv-x="656" 
d="M656 679c-65 -140 -211 -501 -279 -681c-12 1 -35 2 -51 2s-39 -1 -55 -2c-45 132 -170 462 -265 681l3 3c29 -1 65 -2 86 -2c26 0 55 1 81 2c43 -143 135 -387 193 -528h3c58 145 148 396 183 528c20 -1 37 -2 48 -2c10 0 32 1 49 2z" />
    <glyph glyph-name="W" unicode="W" horiz-adv-x="1008" 
d="M1010 679c-67 -167 -189 -494 -252 -681c-15 1 -39 2 -57 2s-41 -1 -59 -2c-33 131 -99 362 -142 496h-3c-52 -138 -123 -339 -175 -496c-13 1 -37 2 -56 2s-45 -1 -58 -2c-43 179 -140 526 -194 681l3 3c37 -2 73 -2 88 -2s43 1 72 2c32 -146 97 -391 137 -522h3
c50 135 130 374 168 522c18 -2 38 -2 53 -2c16 0 35 1 48 2c40 -158 115 -406 160 -523h3c50 136 120 352 163 523c13 -1 38 -2 49 -2c10 0 37 1 44 2z" />
    <glyph glyph-name="X" unicode="X" horiz-adv-x="613" 
d="M601 1l-4 -3c-38 1 -74 2 -97 2c-24 0 -57 -1 -81 -2c-37 79 -92 187 -139 270h-3c-52 -80 -112 -181 -158 -270c-19 1 -39 2 -50 2s-33 -1 -53 -2l-4 3c71 97 169 237 229 328c-55 98 -147 246 -216 350l3 3c28 -2 69 -2 94 -2c28 0 62 1 84 2c34 -73 81 -160 125 -235
h3c40 60 108 173 140 235c16 -1 35 -2 50 -2c14 0 31 1 50 2l4 -3c-60 -79 -154 -212 -210 -293c64 -108 161 -270 233 -385z" />
    <glyph glyph-name="Y" unicode="Y" horiz-adv-x="606" 
d="M602 680c-58 -87 -179 -289 -230 -390v-40c0 -90 2 -172 8 -252c-27 1 -52 2 -77 2s-50 -1 -78 -2c6 80 8 162 8 252v37c-51 95 -168 296 -229 393l3 2c38 -1 69 -2 96 -2c30 0 51 1 77 2c39 -85 108 -218 162 -314h3c55 98 125 241 153 314c19 -1 35 -2 47 -2
c16 0 45 1 54 2z" />
    <glyph glyph-name="Z" unicode="Z" horiz-adv-x="622" 
d="M600 651c-82 -110 -305 -444 -393 -587c22 -1 44 -2 83 -2c103 0 224 6 313 18c-1 -22 -1 -33 -1 -41c0 -9 0 -21 1 -41c-98 2 -258 3 -334 3c-90 0 -182 -1 -259 -3l-2 32c138 191 318 461 393 590c-19 1 -52 1 -78 1c-58 0 -201 -6 -253 -15c1 24 1 32 1 38s0 12 -1 38
c72 -1 195 -3 314 -3c83 0 175 2 212 3z" />
    <glyph glyph-name="bracketleft" unicode="[" horiz-adv-x="300" 
d="M265 -91h-210c3 95 5 192 5 291v278c0 97 -2 194 -5 289h210v-34l-105 -13c-2 -84 -2 -167 -2 -254v-255c0 -89 0 -176 2 -255l105 -13v-34z" />
    <glyph glyph-name="backslash" unicode="\" horiz-adv-x="500" 
d="M305 149l-158 317c-45 90 -105 210 -148 292l61 13c37 -81 92 -194 135 -281l158 -317c45 -90 105 -210 148 -292l-61 -13c-37 81 -92 194 -135 281z" />
    <glyph glyph-name="bracketright" unicode="]" horiz-adv-x="300" 
d="M35 -91v34l105 13c2 79 2 166 2 255v255c0 87 0 170 -2 254l-105 13v34h210c-3 -95 -5 -192 -5 -289v-278c0 -99 2 -196 5 -291h-210z" />
    <glyph glyph-name="asciicircum" unicode="^" 
d="M456 160c-16 -5 -43 -19 -56 -31c-41 87 -125 247 -160 306c-35 -59 -119 -219 -160 -306c-18 16 -40 26 -56 31c64 99 148 254 210 371h12c62 -117 146 -272 210 -371z" />
    <glyph glyph-name="underscore" unicode="_" horiz-adv-x="500" 
d="M500 -130h-500v50h500v-50z" />
    <glyph glyph-name="grave" unicode="`" horiz-adv-x="333" 
d="M232 578l-2 -3h-40c-32 29 -87 79 -121 111c-12 12 -20 20 -20 32c0 23 23 30 48 30c26 0 35 -8 47 -29c17 -28 56 -92 88 -141z" />
    <glyph glyph-name="a" unicode="a" horiz-adv-x="515" 
d="M309 61c-23 -32 -68 -70 -140 -70s-136 43 -136 134c0 81 48 123 141 141c113 22 134 31 134 65v11c0 52 -22 95 -93 95c-50 0 -89 -33 -100 -101h-22c-5 39 -15 73 -23 93c37 37 113 63 183 63c157 0 188 -78 188 -181c0 -47 -5 -141 -5 -192c0 -48 9 -80 51 -80
c8 0 15 0 21 2v-27c-25 -12 -66 -21 -105 -21c-61 0 -89 28 -94 68zM309 252c-105 -19 -149 -41 -149 -110c0 -57 30 -81 70 -81c36 0 68 26 75 55c3 33 4 94 4 136z" />
    <glyph glyph-name="b" unicode="b" horiz-adv-x="616" 
d="M570 245c0 -128 -68 -255 -237 -255c-73 0 -131 20 -171 52c-11 -7 -44 -26 -62 -42h-30c6 77 7 210 7 300v119c0 90 -2 268 -7 329c29 -1 50 -2 75 -2s43 1 70 2c-7 -62 -10 -234 -10 -315v-22h4c24 36 74 80 160 80c152 0 201 -122 201 -246zM429 236
c0 94 -27 188 -112 188c-54 0 -90 -42 -105 -100c-9 -36 -10 -79 -10 -122c0 -100 36 -164 110 -164c81 0 117 88 117 198z" />
    <glyph glyph-name="c" unicode="c" horiz-adv-x="489" 
d="M473 451c-10 -23 -24 -73 -29 -105l-22 -2c-10 50 -39 93 -102 93c-97 0 -135 -91 -135 -195c0 -107 41 -195 154 -195c46 0 89 19 114 56l15 -7c-5 -18 -10 -49 -10 -69c-27 -22 -88 -42 -158 -42c-146 0 -254 76 -254 255c0 177 131 249 264 249c67 0 133 -19 163 -38z
" />
    <glyph glyph-name="d" unicode="d" horiz-adv-x="615" 
d="M545 -2c-22 1 -45 2 -70 2s-49 -1 -67 -2c2 26 3 52 3 76h-2c-21 -42 -70 -87 -163 -87c-141 0 -200 124 -200 250c0 127 67 253 221 253c79 0 119 -31 142 -65h2v24c0 90 -3 219 -7 299c20 -1 44 -2 69 -2s50 1 72 2c-4 -80 -7 -239 -7 -329v-119c0 -90 3 -221 7 -302z
M415 241c0 103 -24 193 -110 193c-76 0 -117 -84 -117 -196c0 -96 36 -188 113 -188c74 0 114 84 114 191z" />
    <glyph glyph-name="e" unicode="e" horiz-adv-x="544" 
d="M183 281h78c41 0 87 1 110 2c0 70 -5 163 -87 163c-76 0 -100 -100 -101 -165zM342 46c58 0 104 26 128 58l16 -7c-6 -24 -11 -51 -11 -66c-41 -29 -104 -48 -176 -48c-162 0 -253 96 -253 252c0 148 90 256 246 256c148 0 209 -101 209 -210c0 -9 -1 -23 -3 -46l-6 -6
c-68 1 -148 2 -204 2h-106v-13c0 -93 42 -172 160 -172z" />
    <glyph glyph-name="f" unicode="f" horiz-adv-x="302" 
d="M384 741c-12 -25 -30 -78 -37 -111l-18 -1c-6 20 -20 55 -61 55c-58 0 -71 -52 -71 -88s14 -90 18 -123h107v-48h-107c-1 -51 -1 -94 -1 -124v-51c0 -60 2 -193 8 -252c-21 1 -46 2 -71 2s-50 -1 -73 -2c6 57 8 192 8 252v51c0 30 0 73 -1 124h-81v48h81v12
c0 111 81 272 239 272c23 0 47 -4 57 -9z" />
    <glyph glyph-name="g" unicode="g" horiz-adv-x="533" 
d="M56 75c0 61 51 87 101 92v3c-60 15 -109 60 -109 144c0 119 81 177 212 177c40 0 80 -6 108 -14c17 -5 43 -8 59 -8l111 4v-48h-106l-1 -2c25 -21 39 -64 39 -98c0 -118 -81 -168 -206 -168c-18 0 -34 1 -47 2c-26 2 -51 -13 -51 -41c0 -36 42 -42 140 -42
c139 -1 226 -16 226 -136c0 -127 -118 -213 -277 -213c-107 0 -232 33 -232 152c0 28 9 57 24 74c22 13 63 30 84 36v3c-39 6 -75 30 -75 83zM339 327c0 76 -21 121 -82 121c-58 0 -78 -50 -78 -125c0 -78 23 -123 80 -123c58 0 80 57 80 127zM403 -105c0 68 -44 83 -142 85
c-24 1 -70 3 -94 6c-26 -17 -44 -49 -44 -99c0 -86 59 -115 132 -115c74 0 148 34 148 123z" />
    <glyph glyph-name="h" unicode="h" horiz-adv-x="596" 
d="M204 421v-15h4c36 47 90 80 159 80c128 0 161 -80 161 -176c0 -33 -3 -81 -3 -128v-12c0 -44 2 -132 5 -172c-19 1 -45 2 -70 2s-49 -1 -72 -2c4 62 7 177 7 252v30c0 68 -15 131 -84 131c-59 0 -105 -51 -105 -151v-60c0 -60 2 -145 7 -202c-21 1 -46 2 -71 2
s-50 -1 -72 -2c4 80 7 212 7 302v119c0 90 -3 249 -7 329c22 -1 47 -2 72 -2s50 1 72 2c-7 -80 -10 -237 -10 -327z" />
    <glyph glyph-name="i" unicode="i" horiz-adv-x="286" 
d="M215 646c0 -40 -32 -73 -72 -73s-72 33 -72 73c0 39 32 72 72 72s72 -33 72 -72zM215 -2c-22 1 -47 2 -72 2s-50 -1 -72 -2c5 55 7 167 7 227v46c0 60 -2 148 -7 205c22 -1 47 -2 72 -2s50 1 72 2c-5 -59 -7 -145 -7 -205v-46c0 -60 2 -170 7 -227z" />
    <glyph glyph-name="j" unicode="j" horiz-adv-x="285" 
d="M215 646c0 -40 -32 -73 -72 -73s-72 33 -72 73c0 39 32 72 72 72s72 -33 72 -72zM215 476c-5 -59 -7 -145 -7 -205v-46c0 -77 4 -163 4 -213c0 -196 -99 -274 -250 -280l-16 40l4 4c87 7 128 49 128 218v212c0 63 -2 213 -7 270c26 -1 51 -2 72 -2c28 0 54 1 72 2z" />
    <glyph glyph-name="k" unicode="k" horiz-adv-x="537" 
d="M536 3l-2 -4c-27 1 -47 1 -66 1c-27 0 -68 -2 -96 -4c-43 76 -115 185 -151 231c-7 6 -12 8 -18 8v-16c0 -60 2 -164 8 -221c-19 1 -44 2 -68 2c-25 0 -50 -1 -73 -2c4 80 7 212 7 302v119c0 90 -3 252 -7 329c22 -1 47 -2 72 -2c24 0 50 1 71 2
c-7 -77 -10 -239 -10 -329v-147c12 0 26 3 36 12c45 38 130 137 166 190c32 0 84 2 107 4l4 -3c-67 -60 -141 -133 -190 -186c49 -69 149 -210 210 -286z" />
    <glyph glyph-name="l" unicode="l" horiz-adv-x="284" 
d="M214 -2c-21 1 -47 2 -72 2s-49 -1 -72 -2c4 80 7 212 7 302v119c0 90 -3 249 -7 329c22 -1 47 -2 72 -2s50 1 72 2c-4 -80 -7 -239 -7 -329v-119c0 -90 3 -221 7 -302z" />
    <glyph glyph-name="m" unicode="m" horiz-adv-x="894" 
d="M827 -2c-20 1 -44 2 -69 2s-50 -1 -72 -2c4 64 7 177 7 252v29c0 61 -7 131 -83 131c-61 0 -98 -52 -98 -142v-43c0 -60 0 -168 7 -227c-21 1 -46 2 -71 2s-50 -1 -69 -2c5 57 6 167 6 227v64c0 62 -11 121 -78 121c-62 0 -101 -52 -101 -142v-68c0 -60 2 -145 7 -202
c-22 1 -46 2 -71 2s-50 -1 -73 -2c5 56 8 167 8 227v46c0 62 -2 136 -8 205c22 -1 47 -2 72 -2s50 1 67 2c-2 -21 -3 -47 -3 -69h4c35 47 89 79 157 79c71 0 116 -32 134 -89c33 49 95 89 165 89c124 0 160 -79 160 -176c0 -35 -3 -79 -3 -129v-11c0 -44 2 -130 5 -172z" />
    <glyph glyph-name="n" unicode="n" horiz-adv-x="597" 
d="M209 476c-4 -21 -5 -47 -5 -69h4c35 46 90 79 160 79c128 0 161 -77 161 -175c0 -34 -3 -81 -3 -129v-12c0 -44 2 -132 5 -172c-20 1 -45 2 -70 2s-50 -1 -70 -2c3 62 5 177 5 252v29c0 61 -10 131 -82 131c-70 0 -107 -52 -107 -142v-68c0 -60 2 -145 7 -202
c-22 1 -47 2 -72 2s-50 -1 -72 -2c5 56 7 167 7 227v46c0 60 -2 139 -7 205c22 -1 47 -2 72 -2s50 1 67 2z" />
    <glyph glyph-name="o" unicode="o" horiz-adv-x="612" 
d="M565 238c0 -148 -97 -255 -260 -255c-192 0 -258 136 -258 255c0 142 86 253 258 253c179 0 260 -108 260 -253zM306 442c-97 0 -117 -112 -117 -204c0 -87 20 -205 117 -205c96 0 117 114 117 205s-21 204 -117 204z" />
    <glyph glyph-name="p" unicode="p" horiz-adv-x="616" 
d="M206 476c-2 -23 -3 -48 -3 -65h4c22 34 71 80 160 80c152 0 202 -120 202 -246c0 -129 -67 -257 -235 -257c-56 0 -100 20 -127 46h-4v-55c0 -79 3 -179 10 -241c-21 1 -46 2 -71 2s-50 -1 -75 -2c5 62 10 262 10 362v106c0 60 -1 203 -7 270c24 -1 46 -2 71 -2
s50 1 65 2zM428 236c0 94 -27 188 -112 188c-54 0 -93 -42 -107 -100c-8 -34 -9 -76 -9 -120c0 -101 37 -165 110 -165c82 0 118 87 118 197z" />
    <glyph glyph-name="q" unicode="q" horiz-adv-x="614" 
d="M268 490c72 0 116 -30 141 -66h4c0 18 0 36 -3 52c20 -1 43 -2 68 -2s50 1 68 2c-6 -72 -8 -216 -8 -276v-100c0 -100 2 -300 8 -362c-22 1 -47 2 -72 2s-50 -1 -72 -2c6 62 8 162 8 262v77h-2c-18 -39 -69 -90 -161 -90c-141 0 -200 124 -200 250s67 253 221 253z
M414 241c0 103 -24 193 -110 193c-76 0 -115 -84 -115 -196c0 -96 34 -188 111 -188c74 0 114 84 114 191z" />
    <glyph glyph-name="r" unicode="r" horiz-adv-x="379" 
d="M405 467c-10 -21 -28 -70 -35 -103l-9 -2c-12 14 -35 21 -56 21c-71 0 -99 -61 -99 -150v-32c0 -61 2 -146 7 -203c-21 1 -47 2 -71 2c-25 0 -50 -1 -73 -2c5 56 8 167 8 227v46c0 60 -2 139 -8 205c22 -1 47 -2 72 -2s52 1 65 2c-3 -21 -6 -62 -6 -101h4
c33 65 82 107 147 107c23 0 40 -4 52 -9z" />
    <glyph glyph-name="s" unicode="s" horiz-adv-x="411" 
d="M374 161c0 -132 -106 -175 -205 -175c-56 0 -113 13 -142 29c2 26 10 73 21 110h21c13 -59 54 -91 108 -91c49 0 90 24 90 76c0 49 -33 65 -105 87c-62 19 -119 50 -119 138c0 121 112 155 186 155c53 0 111 -12 136 -25c-8 -20 -21 -63 -28 -100h-22
c-7 44 -30 80 -88 80c-38 0 -77 -21 -77 -66c0 -39 24 -57 83 -74c90 -26 141 -63 141 -144z" />
    <glyph glyph-name="t" unicode="t" horiz-adv-x="328" 
d="M328 26c-33 -20 -83 -35 -135 -35c-82 0 -120 47 -120 125c0 73 7 202 7 309h-75v48h75c0 27 0 65 -2 102c33 9 90 28 128 50l12 -5c-5 -41 -10 -103 -10 -147h117v-48h-118c-3 -82 -6 -193 -6 -262c0 -71 11 -111 66 -111c21 0 41 4 54 10l4 -2z" />
    <glyph glyph-name="u" unicode="u" horiz-adv-x="597" 
d="M527 -2c-22 1 -47 2 -72 2s-50 -1 -67 -2c2 26 3 48 3 71h-4c-34 -48 -92 -81 -158 -81c-128 0 -161 77 -161 175c0 34 3 81 3 129v12c0 44 -2 132 -5 172c20 -1 45 -2 70 -2s49 1 70 2c-3 -62 -5 -177 -5 -252v-28c0 -62 11 -132 79 -132c70 0 110 52 110 143v67
c0 60 -2 145 -7 202c22 -1 47 -2 72 -2s50 1 72 2c-5 -56 -7 -167 -7 -227v-46c0 -60 2 -139 7 -205z" />
    <glyph glyph-name="v" unicode="v" horiz-adv-x="501" 
d="M498 473c-71 -157 -156 -358 -199 -475c-16 1 -34 2 -50 2c-19 0 -38 -1 -57 -2c-35 104 -124 323 -189 475l3 3c28 -2 53 -2 78 -2s60 1 78 2c32 -110 86 -266 121 -353h3c37 87 98 258 124 353c12 -1 29 -2 41 -2c10 0 30 1 43 2z" />
    <glyph glyph-name="w" unicode="w" horiz-adv-x="791" 
d="M784 473c-58 -137 -148 -382 -178 -475c-14 1 -33 2 -53 2c-19 0 -39 -1 -56 -2c-14 59 -68 229 -103 333h-4c-41 -106 -94 -257 -118 -333c-14 1 -39 2 -56 2c-19 0 -38 -1 -53 -2c-17 66 -100 321 -157 475l4 3c18 -1 47 -2 68 -2c20 0 54 0 79 2
c21 -86 70 -250 102 -339h3c30 81 83 243 108 339c17 -1 40 -2 56 -2c19 0 47 1 59 2c27 -105 76 -260 103 -339h3c31 82 83 238 107 339c11 -1 29 -2 42 -2c12 0 32 1 41 2z" />
    <glyph glyph-name="x" unicode="x" horiz-adv-x="497" 
d="M489 1l-3 -3c-26 1 -56 2 -86 2c-24 0 -46 -1 -76 -2c-31 56 -68 117 -102 172c-38 -51 -84 -122 -113 -172c-14 1 -36 2 -52 2c-14 0 -32 -1 -48 -2l-2 4c58 64 130 151 181 220c-48 74 -121 180 -173 251l2 3c32 -1 65 -2 95 -2c28 0 55 1 71 2c26 -52 64 -116 92 -161
c36 47 82 117 106 161c12 -1 25 -2 41 -2c13 0 37 1 53 2l3 -3c-51 -58 -116 -138 -170 -207c49 -77 117 -177 181 -265z" />
    <glyph glyph-name="y" unicode="y" horiz-adv-x="499" 
d="M497 473c-54 -108 -134 -286 -213 -473c-38 -90 -81 -202 -101 -265c-9 1 -30 2 -44 2c-13 0 -33 -1 -50 -2l-3 2c48 84 97 190 121 250c-39 102 -136 337 -205 486l3 3c20 -2 63 -2 87 -2c26 0 54 1 67 2c31 -101 86 -246 122 -332h2c40 90 100 250 123 332
c13 -1 33 -2 42 -2c13 0 31 1 46 2z" />
    <glyph glyph-name="z" unicode="z" horiz-adv-x="470" 
d="M182 58c21 -2 57 -2 78 -2c68 0 138 7 189 15c-1 -17 -1 -27 -1 -36c0 -11 0 -21 1 -37c-89 2 -207 3 -265 3c-51 0 -125 -2 -177 -3l-2 25c93 125 223 309 273 395c-11 1 -46 2 -67 2c-48 0 -116 -3 -160 -13c1 17 1 30 1 39c0 8 0 17 -1 30c32 -1 73 -2 116 -3h134
s103 0 145 2l2 -31c-90 -125 -207 -294 -266 -386z" />
    <glyph glyph-name="braceleft" unicode="{" horiz-adv-x="300" 
d="M270 -91h-107c-76 0 -91 30 -89 110l6 206c2 60 -17 94 -80 96v33c63 2 82 37 80 96l-6 207c-2 80 14 110 90 110h106v-28l-44 -8c-42 -8 -53 -31 -53 -101v-165c0 -76 -25 -108 -103 -126v-2c78 -18 103 -50 103 -126v-165c0 -70 11 -94 53 -101l44 -8v-28z" />
    <glyph glyph-name="bar" unicode="|" horiz-adv-x="266" 
d="M159 118c0 -77 3 -181 7 -229c-14 1 -24 1 -33 1s-19 0 -33 -1c4 48 7 154 7 229v428c0 75 -3 179 -7 227c14 -1 24 -1 33 -1s19 0 33 1c-4 -48 -7 -152 -7 -227v-428z" />
    <glyph glyph-name="braceright" unicode="}" horiz-adv-x="300" 
d="M30 -91v28l44 8c42 7 53 31 53 101v165c0 76 25 108 103 126v2c-78 18 -103 50 -103 126v165c0 70 -11 93 -53 101l-44 8v28h106c76 0 92 -30 90 -110l-6 -207c-2 -59 17 -94 80 -96v-33c-63 -2 -82 -36 -80 -96l6 -206c2 -80 -13 -110 -89 -110h-107z" />
    <glyph glyph-name="asciitilde" unicode="~" 
d="M464 361c-14 -60 -52 -122 -130 -122c-28 0 -62 8 -102 39c-42 31 -62 39 -92 39c-54 0 -75 -42 -88 -79l-36 12c14 59 52 121 130 121c28 0 61 -6 105 -40c39 -29 59 -38 89 -38c53 0 75 42 88 79z" />
    <glyph glyph-name="Euro" horiz-adv-x="720" 
d="M481 42c80 0 131 40 152 98l22 -2c-1 -34 -1 -78 3 -106c-47 -30 -122 -48 -197 -48c-167 0 -305 76 -337 273c-31 0 -62 -1 -96 -3c6 16 12 41 15 58c22 -2 56 -3 80 -3c-1 10 -1 26 -1 39c0 14 1 31 2 40c-22 0 -57 0 -91 -2c6 16 12 41 15 57c25 -1 58 -3 82 -3
c33 166 162 256 331 256c89 0 166 -21 209 -50c-8 -26 -21 -71 -28 -115l-23 -3c-8 65 -58 118 -147 118c-93 0 -176 -65 -201 -205h189c44 0 93 1 145 3c-6 -18 -13 -44 -16 -58c-52 2 -102 3 -154 3h-171c-1 -12 -2 -31 -2 -46c0 -12 0 -24 1 -33h168c44 0 93 1 145 3
c-6 -18 -13 -44 -16 -58c-52 2 -102 3 -154 3h-139c18 -146 96 -216 214 -216z" />
    <glyph glyph-name="quotesinglbase" horiz-adv-x="240" 
d="M208 114c0 -11 -4 -22 -12 -35c-28 -49 -98 -160 -127 -206l-29 5l-2 2c23 74 54 184 67 235c5 18 15 35 46 35c24 0 57 -7 57 -36z" />
    <glyph glyph-name="florin" horiz-adv-x="635" 
d="M81 -153c43 0 62 39 81 113c28 108 66 292 76 344h-36c-31 0 -61 0 -100 -2c1 11 1 19 1 28s0 17 -1 29c39 -3 69 -3 100 -3h46c30 128 41 170 61 205c46 78 126 138 236 138c30 0 67 -5 85 -13l1 -5c-10 -22 -24 -64 -30 -89l-21 -1c-7 30 -27 57 -64 57
c-57 0 -83 -44 -104 -127c-8 -31 -23 -96 -36 -165h23c46 0 90 0 134 3c-1 -12 -1 -21 -1 -30s0 -16 1 -27c-44 2 -89 2 -134 2h-35c-29 -124 -55 -227 -81 -303c-29 -85 -97 -204 -224 -204c-29 1 -69 5 -89 12l-3 7c5 21 15 52 25 79l14 3c14 -34 38 -51 75 -51z" />
    <glyph glyph-name="quotedblbase" horiz-adv-x="391" 
d="M188 75c-29 -49 -93 -156 -121 -202l-28 4l-1 2c21 74 49 184 61 235c4 18 16 36 47 36c27 0 56 -7 56 -36c0 -11 -6 -25 -14 -39zM359 114c0 -11 -4 -22 -12 -35c-28 -49 -98 -160 -127 -206l-29 5l-2 2c23 74 54 184 67 235c5 18 15 35 46 35c24 0 57 -7 57 -36z" />
    <glyph glyph-name="ellipsis" unicode="&#x85;" horiz-adv-x="780" 
d="M726 61c0 -42 -34 -77 -76 -77s-76 35 -76 77c0 41 34 76 76 76s76 -35 76 -76zM466 61c0 -42 -34 -77 -76 -77s-76 35 -76 77c0 41 34 76 76 76s76 -35 76 -76zM206 61c0 -42 -34 -77 -76 -77s-76 35 -76 77c0 41 34 76 76 76s76 -35 76 -76z" />
    <glyph glyph-name="dagger" horiz-adv-x="524" 
d="M211 458c0 70 0 182 -8 224c23 -1 45 -2 59 -2s36 1 59 2c-8 -42 -8 -154 -8 -224c63 0 121 0 179 7c-1 -18 -2 -33 -2 -45c0 -11 1 -26 2 -44c-58 7 -116 7 -179 7c0 -123 3 -256 8 -385c-23 1 -45 2 -59 2s-36 -1 -59 -2c5 129 8 262 8 385c-63 0 -121 0 -179 -7
c1 16 2 33 2 44c0 12 -1 28 -2 45c58 -7 116 -7 179 -7z" />
    <glyph glyph-name="daggerdbl" horiz-adv-x="524" 
d="M313 259c63 0 121 0 179 7c-1 -18 -2 -33 -2 -45c0 -11 1 -26 2 -44c-58 7 -116 7 -179 7c0 -55 0 -144 8 -186c-18 1 -45 2 -59 2s-41 -1 -59 -2c8 42 8 130 8 186c-63 0 -121 0 -179 -7c1 16 2 33 2 44c0 12 -1 28 -2 45c58 -7 116 -7 179 -7v178c-63 0 -121 0 -179 -7
c1 16 2 33 2 44c0 12 -1 28 -2 45c58 -7 116 -7 179 -7c0 42 0 128 -8 170c18 -1 45 -2 59 -2s41 1 59 2c-8 -42 -8 -128 -8 -170c63 0 121 0 179 7c-1 -18 -2 -33 -2 -45c0 -11 1 -26 2 -44c-58 7 -116 7 -179 7v-178z" />
    <glyph glyph-name="circumflex" horiz-adv-x="333" 
d="M319 583l-38 -7l-115 94l-115 -94l-38 7v6c37 40 96 108 138 159h30c42 -51 101 -119 138 -159v-6z" />
    <glyph glyph-name="perthousand" horiz-adv-x="1152" 
d="M734 159c0 -97 -58 -167 -161 -167c-125 0 -160 89 -160 167c0 94 52 167 160 167c111 0 161 -71 161 -167zM574 294c-50 0 -60 -80 -60 -135c0 -52 10 -135 60 -135s61 81 61 135s-11 135 -61 135zM1110 159c0 -97 -58 -167 -161 -167c-125 0 -160 89 -160 167
c0 94 52 167 160 167c111 0 161 -71 161 -167zM950 294c-50 0 -60 -80 -60 -135c0 -52 10 -135 60 -135s61 81 61 135s-11 135 -61 135zM363 521c0 -97 -58 -167 -161 -167c-125 0 -160 89 -160 167c0 94 52 167 160 167c111 0 161 -71 161 -167zM203 656
c-50 0 -60 -80 -60 -135c0 -52 10 -135 60 -135s61 81 61 135s-11 135 -61 135zM161 -10l-47 21c115 147 421 567 502 687l49 -23c-102 -130 -405 -542 -504 -685z" />
    <glyph glyph-name="Scaron" horiz-adv-x="528" 
d="M479 211c0 -150 -120 -227 -263 -227c-69 0 -145 18 -181 37c3 33 12 90 23 129l23 2c20 -78 73 -110 143 -110c57 0 122 33 122 114c0 72 -50 100 -132 135c-74 32 -159 73 -159 195c0 151 130 209 248 209c57 0 116 -12 164 -33c-12 -34 -23 -79 -29 -117l-24 -2
c-12 54 -47 95 -116 95c-56 0 -115 -30 -115 -99c0 -62 38 -89 117 -123c100 -43 179 -87 179 -205zM439 893c-39 -42 -100 -111 -142 -166h-36c-42 55 -103 124 -142 166v4l40 8l120 -95l120 95l40 -8v-4z" />
    <glyph glyph-name="guilsinglleft" horiz-adv-x="307" 
d="M58 240c42 68 100 165 122 205c20 -13 48 -28 69 -38c-36 -51 -89 -130 -112 -167c23 -37 76 -116 112 -167c-21 -10 -49 -25 -69 -38c-22 40 -80 137 -122 205z" />
    <glyph glyph-name="OE" horiz-adv-x="1015" 
d="M970 -2c-63 1 -181 3 -266 3c-26 0 -80 -2 -103 -3c0 16 2 40 2 60c-31 -40 -97 -75 -189 -75c-224 0 -364 139 -364 357s140 357 364 357c92 0 160 -31 188 -67c0 21 0 35 -1 52c23 -1 71 -3 103 -3c66 0 195 1 261 3c-1 -19 -1 -30 -1 -38c0 -7 0 -19 1 -37
c-43 8 -139 14 -217 14c-2 -49 -5 -127 -5 -203v-31c100 0 166 5 203 10c-1 -19 -1 -31 -1 -39c0 -7 0 -19 1 -37c-37 5 -102 8 -203 8v-36c0 -86 2 -188 4 -234c71 0 151 4 223 17c-1 -20 -1 -32 -1 -40c0 -7 0 -18 1 -38zM608 340c0 195 -65 303 -195 303
s-205 -102 -205 -303c0 -196 74 -301 204 -301c131 0 196 104 196 301z" />
    <glyph glyph-name="Zcaron" horiz-adv-x="622" 
d="M600 651c-82 -110 -305 -444 -393 -587c22 -1 44 -2 83 -2c103 0 224 6 313 18c-1 -22 -1 -33 -1 -41c0 -9 0 -21 1 -41c-98 2 -258 3 -334 3c-90 0 -182 -1 -259 -3l-2 32c138 191 318 461 393 590c-19 1 -52 1 -78 1c-58 0 -201 -6 -253 -15c1 24 1 32 1 38s0 12 -1 38
c72 -1 195 -3 314 -3c83 0 175 2 212 3zM498 892c-39 -42 -100 -111 -142 -166h-36c-42 55 -103 124 -142 166v4l40 8l120 -95l120 95l40 -8v-4z" />
    <glyph glyph-name="quoteleft" horiz-adv-x="240" 
d="M32 501c0 11 4 22 12 35c28 49 98 160 127 206l29 -5l2 -2c-23 -74 -54 -184 -67 -235c-5 -18 -15 -35 -46 -35c-24 0 -57 7 -57 36z" />
    <glyph glyph-name="quoteright" horiz-adv-x="240" 
d="M208 693c0 -11 -4 -22 -12 -35c-28 -49 -98 -160 -127 -206l-29 5l-2 2c23 74 54 184 67 235c5 18 15 35 46 35c24 0 57 -7 57 -36z" />
    <glyph glyph-name="quotedblleft" horiz-adv-x="391" 
d="M203 540c29 49 93 156 121 202l28 -4l1 -2c-21 -74 -49 -184 -61 -235c-4 -18 -16 -36 -47 -36c-27 0 -56 7 -56 36c0 11 6 25 14 39zM32 501c0 11 4 22 12 35c28 49 98 160 127 206l29 -5l2 -2c-23 -74 -54 -184 -67 -235c-5 -18 -15 -35 -46 -35c-24 0 -57 7 -57 36z
" />
    <glyph glyph-name="quotedblright" horiz-adv-x="391" 
d="M188 654c-29 -49 -93 -156 -121 -202l-28 4l-1 2c21 74 49 184 61 235c4 18 16 36 47 36c27 0 56 -7 56 -36c0 -11 -6 -25 -14 -39zM359 693c0 -11 -4 -22 -12 -35c-28 -49 -98 -160 -127 -206l-29 5l-2 2c23 74 54 184 67 235c5 18 15 35 46 35c24 0 57 -7 57 -36z" />
    <glyph glyph-name="bullet" horiz-adv-x="606" 
d="M133 340c0 94 76 170 170 170s170 -76 170 -170s-76 -170 -170 -170s-170 76 -170 170z" />
    <glyph glyph-name="endash" horiz-adv-x="460" 
d="M34 228v65h392v-65h-392z" />
    <glyph glyph-name="emdash" horiz-adv-x="700" 
d="M34 228v65h632v-65h-632z" />
    <glyph glyph-name="tilde" horiz-adv-x="333" 
d="M335 700c-15 -79 -46 -116 -97 -116c-28 0 -54 11 -87 32c-29 19 -50 29 -68 29c-28 0 -44 -16 -57 -57l-27 7c14 71 41 115 96 115c29 0 53 -9 90 -33c25 -16 46 -26 63 -26c32 0 48 17 61 58z" />
    <glyph glyph-name="trademark" horiz-adv-x="700" 
d="M571 718h62c8 -107 25 -252 34 -317c-22 1 -36 1 -42 1c-10 0 -24 0 -31 -1c-3 57 -9 158 -17 241h-4c-32 -60 -80 -165 -110 -235h-19c-31 72 -80 178 -108 233h-4c-7 -88 -12 -186 -12 -239c-7 1 -24 1 -28 1c-5 0 -13 0 -26 -1c17 101 31 227 39 317h58
c35 -78 80 -175 103 -220h2c19 37 63 132 103 220zM14 717c30 -1 79 -2 117 -2s88 1 117 2c-1 -7 -1 -13 -1 -17s0 -8 1 -24c-21 4 -61 8 -85 8c-1 -17 -1 -42 -1 -54v-89c0 -42 1 -103 4 -140c-20 1 -28 1 -35 1s-16 0 -34 -1c2 37 4 98 4 140v89c0 13 0 36 -2 54
c-22 0 -58 -2 -85 -6c1 12 1 19 1 23s0 12 -1 16z" />
    <glyph glyph-name="scaron" horiz-adv-x="411" 
d="M374 161c0 -132 -106 -175 -205 -175c-56 0 -113 13 -142 29c2 26 10 73 21 110h21c13 -59 54 -91 108 -91c49 0 90 24 90 76c0 49 -33 65 -105 87c-62 19 -119 50 -119 138c0 121 112 155 186 155c53 0 111 -12 136 -25c-8 -20 -21 -63 -28 -100h-22
c-7 44 -30 80 -88 80c-38 0 -77 -21 -77 -66c0 -39 24 -57 83 -74c90 -26 141 -63 141 -144zM372 729c-39 -42 -100 -111 -142 -166h-36c-42 55 -103 124 -142 166v4l40 8l120 -95l120 95l40 -8v-4z" />
    <glyph glyph-name="guilsinglright" horiz-adv-x="307" 
d="M249 240c-42 -68 -100 -165 -122 -205c-20 13 -48 28 -69 38c36 51 89 130 112 167c-23 37 -76 116 -112 167c21 10 49 25 69 38c22 -40 80 -137 122 -205z" />
    <glyph glyph-name="oe" horiz-adv-x="918" 
d="M666 491c148 0 209 -101 209 -210c0 -9 -1 -23 -3 -46l-6 -6c-68 1 -148 2 -204 2h-106v-13c0 -93 42 -172 160 -172c58 0 104 26 128 58l16 -7c-6 -24 -11 -51 -11 -66c-41 -29 -104 -48 -176 -48c-81 0 -139 27 -183 77c-41 -48 -106 -77 -185 -77
c-192 0 -258 136 -258 255c0 142 86 253 258 253c78 0 146 -26 188 -78c33 44 98 78 173 78zM306 442c-97 0 -117 -112 -117 -204c0 -87 20 -205 117 -205c96 0 117 114 117 205s-21 204 -117 204zM557 281h78c41 0 87 1 110 2c0 70 -5 163 -87 163
c-76 0 -100 -100 -101 -165z" />
    <glyph glyph-name="zcaron" horiz-adv-x="470" 
d="M182 58c21 -2 57 -2 78 -2c68 0 138 7 189 15c-1 -17 -1 -27 -1 -36c0 -11 0 -21 1 -37c-89 2 -207 3 -265 3c-51 0 -125 -2 -177 -3l-2 25c93 125 223 309 273 395c-11 1 -46 2 -67 2c-48 0 -116 -3 -160 -13c1 17 1 30 1 39c0 8 0 17 -1 30c32 -1 73 -2 116 -3h134
s103 0 145 2l2 -31c-90 -125 -207 -294 -266 -386zM416 729c-39 -42 -100 -111 -142 -166h-36c-42 55 -103 124 -142 166v4l40 8l120 -95l120 95l40 -8v-4z" />
    <glyph glyph-name="Ydieresis" horiz-adv-x="606" 
d="M602 680c-58 -87 -179 -289 -230 -390v-40c0 -90 2 -172 8 -252c-27 1 -52 2 -77 2s-50 -1 -78 -2c6 80 8 162 8 252v37c-51 95 -168 296 -229 393l3 2c38 -1 69 -2 96 -2c30 0 51 1 77 2c39 -85 108 -218 162 -314h3c55 98 125 241 153 314c19 -1 35 -2 47 -2
c16 0 45 1 54 2zM494 814c0 -35 -29 -63 -63 -63c-35 0 -63 27 -63 63c0 35 28 62 63 62c34 0 63 -27 63 -62zM297 814c0 -35 -28 -63 -62 -63c-36 0 -64 27 -64 63c0 35 28 62 64 62c34 0 62 -27 62 -62z" />
    <glyph glyph-name="exclamdown" unicode="&#xa1;" horiz-adv-x="334" 
d="M243 408c0 -41 -34 -76 -76 -76s-76 35 -76 76c0 42 34 77 76 77s76 -35 76 -77zM251 -150c0 -57 -35 -79 -84 -79c-50 0 -84 22 -84 80c0 62 50 185 67 414h34c17 -229 67 -353 67 -415z" />
    <glyph glyph-name="cent" unicode="&#xa2;" horiz-adv-x="575" 
d="M514 452c-11 -23 -25 -70 -31 -105l-23 -2c-6 51 -33 94 -90 98v-404c50 0 97 24 120 61l16 -7c-5 -13 -10 -45 -11 -65c-22 -19 -71 -37 -125 -42c0 -35 2 -82 5 -111c-11 2 -20 2 -31 2s-20 0 -27 -2c3 30 5 76 5 110c-145 4 -251 77 -251 253c0 166 118 243 250 251
c0 31 -1 69 -4 95c6 -1 15 -2 26 -2s24 1 32 2c-3 -23 -5 -60 -5 -95c54 -2 112 -18 144 -37zM322 41v403c-79 -10 -111 -107 -111 -208c0 -97 32 -177 111 -195z" />
    <glyph glyph-name="sterling" unicode="&#xa3;" horiz-adv-x="600" 
d="M553 -2c-90 1 -189 3 -275 3c-83 0 -167 -1 -245 -3c1 14 2 35 2 55c0 19 -1 36 -2 54h26c74 0 107 40 107 132c0 38 -2 72 -6 107h-24c-23 0 -50 0 -74 -3c1 10 1 19 1 30c0 10 0 19 -1 29c25 -3 50 -3 67 -3h28c-2 24 -4 47 -4 65c0 70 25 132 74 176
c43 38 109 57 169 57c55 0 112 -12 149 -37c-14 -25 -28 -65 -35 -102h-24c-11 50 -34 90 -94 90c-76 0 -103 -72 -103 -152c0 -32 3 -75 6 -97h49c29 0 76 0 119 3c-2 -10 -2 -18 -2 -28c0 -11 0 -20 2 -31c-43 4 -82 4 -122 4h-44c0 -13 1 -24 1 -34
c0 -94 -51 -164 -133 -204v-3c139 0 294 4 388 14c-1 -24 -2 -46 -2 -63c0 -19 1 -43 2 -59z" />
    <glyph glyph-name="currency" unicode="&#xa4;" horiz-adv-x="720" 
d="M481 42c80 0 131 40 152 98l22 -2c-1 -34 -1 -78 3 -106c-47 -30 -122 -48 -197 -48c-167 0 -305 76 -337 273c-31 0 -62 -1 -96 -3c6 16 12 41 15 58c22 -2 56 -3 80 -3c-1 10 -1 26 -1 39c0 14 1 31 2 40c-22 0 -57 0 -91 -2c6 16 12 41 15 57c25 -1 58 -3 82 -3
c33 166 162 256 331 256c89 0 166 -21 209 -50c-8 -26 -21 -71 -28 -115l-23 -3c-8 65 -58 118 -147 118c-93 0 -176 -65 -201 -205h189c44 0 93 1 145 3c-6 -18 -13 -44 -16 -58c-52 2 -102 3 -154 3h-171c-1 -12 -2 -31 -2 -46c0 -12 0 -24 1 -33h168c44 0 93 1 145 3
c-6 -18 -13 -44 -16 -58c-52 2 -102 3 -154 3h-139c18 -146 96 -216 214 -216z" />
    <glyph glyph-name="yen" unicode="&#xa5;" horiz-adv-x="615" 
d="M371 185c0 -54 2 -121 7 -187c-22 1 -56 2 -71 2s-49 -1 -68 -2c5 66 7 133 8 187h-30c-55 0 -102 -1 -151 -4c1 10 1 20 1 29c0 10 0 21 -1 31c46 -3 95 -4 151 -4h30v87h-30c-50 0 -105 -2 -151 -4c1 10 1 20 1 30s0 20 -1 30c45 -3 90 -4 135 -4h25
c-53 85 -160 244 -205 304l3 2c32 -1 62 -2 88 -2c21 0 54 1 83 2c31 -67 92 -177 149 -267h3c58 94 120 209 144 268c19 -1 42 -2 53 -2c10 0 28 1 49 2l3 -2c-50 -68 -158 -226 -207 -305h27c45 0 90 1 135 4c-1 -10 -1 -20 -1 -30s0 -20 1 -30c-46 2 -101 4 -151 4h-30
v-87h30c56 0 105 1 151 4c-1 -10 -1 -21 -1 -31c0 -9 0 -19 1 -29c-49 3 -96 4 -151 4h-29z" />
    <glyph glyph-name="brokenbar" unicode="&#xa6;" horiz-adv-x="266" 
d="M166 406c-14 1 -24 1 -33 1s-19 0 -33 -1c4 38 7 120 7 178v13c0 58 -3 139 -7 176c14 -1 24 -1 33 -1s19 0 33 1c-4 -37 -6 -118 -6 -176v-13c0 -60 2 -140 6 -178zM166 -111c-14 1 -24 1 -33 1s-19 0 -33 -1c4 38 7 120 7 178v13c0 58 -3 139 -7 176c14 -1 24 -1 33 -1
s19 0 33 1c-4 -37 -6 -118 -6 -176v-13c0 -60 2 -140 6 -178z" />
    <glyph glyph-name="section" unicode="&#xa7;" horiz-adv-x="520" 
d="M420 565l-20 -1c-12 50 -50 86 -108 86c-45 0 -89 -18 -89 -82c0 -59 48 -78 111 -104c99 -41 159 -78 159 -158c0 -72 -40 -123 -80 -146c30 -24 48 -62 48 -103c0 -123 -103 -186 -218 -186c-67 0 -128 16 -170 40c3 23 12 64 26 112l21 2c16 -67 62 -101 131 -101
c54 0 95 21 95 84c0 58 -64 84 -145 115c-82 31 -139 68 -139 158c0 73 39 120 82 150c-18 15 -35 49 -35 96c0 106 87 173 202 173c65 0 125 -19 161 -40c-11 -25 -23 -61 -32 -95zM382 241c0 49 -37 74 -114 106c-51 21 -92 41 -112 57c-14 -11 -28 -38 -28 -58
c0 -42 18 -70 89 -99c88 -36 125 -55 142 -67c13 15 23 44 23 61z" />
    <glyph glyph-name="dieresis" unicode="&#xa8;" horiz-adv-x="333" 
d="M328 646c0 -35 -29 -63 -63 -63c-35 0 -63 27 -63 63c0 35 28 62 63 62c34 0 63 -27 63 -62zM131 646c0 -35 -28 -63 -62 -63c-36 0 -64 27 -64 63c0 35 28 62 64 62c34 0 62 -27 62 -62z" />
    <glyph glyph-name="copyright" unicode="&#xa9;" horiz-adv-x="900" 
d="M613 238c4 -21 6 -50 6 -64c-29 -30 -77 -56 -150 -56c-138 0 -228 99 -228 220c0 128 88 225 236 225c65 0 123 -24 150 -52c-8 -26 -15 -60 -19 -85h-20c-5 50 -32 87 -92 87c-80 0 -132 -62 -132 -173c0 -97 48 -171 134 -171c53 0 87 29 98 69h17zM450 678
c-187 0 -339 -152 -339 -339s152 -339 339 -339s339 152 339 339s-152 339 -339 339zM450 719c210 0 380 -170 380 -380s-170 -380 -380 -380s-380 170 -380 380s170 380 380 380z" />
    <glyph glyph-name="ordfeminine" unicode="&#xaa;" horiz-adv-x="500" 
d="M434 337c-24 -12 -60 -20 -92 -20c-41 0 -62 21 -65 50c-14 -21 -46 -50 -101 -50c-56 0 -103 31 -103 99c0 59 37 90 108 104c78 15 95 26 95 39v19c0 39 -13 62 -65 62c-31 0 -67 -20 -79 -50l-16 1c0 19 -1 41 -2 56c30 23 81 38 133 38c118 0 143 -57 143 -133
c0 -34 -4 -96 -4 -134c0 -35 5 -59 34 -59h14v-22zM277 507c-70 -13 -100 -29 -100 -79c0 -38 20 -56 50 -56c25 0 43 19 47 34c2 25 3 71 3 101z" />
    <glyph glyph-name="guillemotleft" unicode="&#xab;" horiz-adv-x="464" 
d="M58 240c42 68 100 165 122 205c20 -13 48 -28 69 -38c-36 -51 -89 -130 -112 -167c23 -37 76 -116 112 -167c-21 -10 -49 -25 -69 -38c-22 40 -80 137 -122 205zM215 240c42 68 100 165 122 205c20 -13 48 -28 69 -38c-36 -51 -89 -130 -112 -167
c23 -37 76 -116 112 -167c-21 -10 -49 -25 -69 -38c-22 40 -80 137 -122 205z" />
    <glyph glyph-name="logicalnot" unicode="&#xac;" 
d="M424 73c0 0 -20 2 -30 2c-11 0 -31 -2 -31 -2c4 45 5 131 5 174v28h-154c-43 0 -127 -1 -172 -6c0 0 2 18 2 32c0 11 -2 31 -2 31c45 -4 129 -5 172 -5c65 0 138 1 204 4l5 -5c-3 -28 -4 -79 -4 -102c0 -45 1 -106 5 -151z" />
    <glyph glyph-name="registered" unicode="&#xae;" horiz-adv-x="420" 
d="M210 729c-91 0 -165 -74 -165 -165s74 -165 165 -165s165 74 165 165s-74 165 -165 165zM210 752c104 0 188 -84 188 -188s-84 -188 -188 -188s-188 84 -188 188s84 188 188 188zM180 573h12c28 0 54 10 54 47c0 31 -24 40 -46 40c-5 0 -11 0 -17 -1
c-2 -19 -3 -57 -3 -75v-11zM181 555v-11c0 -29 3 -64 4 -90c-6 0 -18 1 -24 1c-5 0 -13 -1 -27 -1c2 26 3 69 3 99v32c0 29 -1 66 -3 92c19 -1 33 -1 39 -1c12 0 45 1 61 1c32 0 60 -14 60 -53c0 -42 -28 -59 -55 -62c15 -24 59 -83 79 -105l-1 -2c-24 0 -40 -1 -53 -2
c-15 25 -44 69 -69 100c-1 1 -7 2 -14 2z" />
    <glyph glyph-name="macron" unicode="&#xaf;" horiz-adv-x="333" 
d="M321 599h-309v58h309v-58z" />
    <glyph glyph-name="degree" unicode="&#xb0;" horiz-adv-x="420" 
d="M208 735c76 0 137 -61 137 -137s-61 -137 -137 -137s-137 61 -137 137s61 137 137 137zM208 694c-53 0 -95 -43 -95 -96s42 -96 95 -96s95 43 95 96s-42 96 -95 96z" />
    <glyph glyph-name="plusminus" unicode="&#xb1;" 
d="M443 70c-45 4 -130 5 -173 5h-62c-43 0 -126 -2 -171 -6c0 0 2 19 2 31c0 10 -2 32 -2 32c45 -4 128 -6 171 -6h62c45 0 128 2 173 6c0 0 -2 -22 -2 -32s2 -30 2 -30zM443 376c-45 4 -127 5 -167 5h-9v-18c0 -43 1 -127 6 -172c0 0 -21 2 -32 2c-12 0 -32 -2 -32 -2
c4 45 5 129 5 172v18h-12c-39 0 -120 -2 -165 -6c0 0 2 17 2 30c0 11 -2 30 -2 30c45 -4 123 -5 165 -5h12v17c0 45 -1 128 -6 173c0 0 19 -1 33 -1s31 1 31 1c-4 -45 -5 -130 -5 -173v-17h9c45 0 122 1 167 5c0 0 -2 -17 -2 -29c0 -14 2 -30 2 -30z" />
    <glyph glyph-name="twosuperior" unicode="&#xb2;" horiz-adv-x="422" 
d="M366 251c-60 1 -115 2 -164 2c-52 0 -98 0 -152 -1v26c167 141 200 209 200 283c0 37 -17 70 -61 70c-45 0 -71 -35 -75 -68l-13 -2c-8 21 -21 44 -33 54c27 35 77 65 147 65c80 0 145 -42 145 -113c0 -60 -33 -103 -96 -153c-37 -30 -70 -57 -91 -79h26
c56 0 117 3 167 7c-1 -19 -1 -37 -1 -47c0 -12 0 -26 1 -44z" />
    <glyph glyph-name="threesuperior" unicode="&#xb3;" horiz-adv-x="422" 
d="M365 385c0 -99 -99 -132 -179 -132c-41 0 -89 6 -124 27c5 14 15 50 20 72h14c8 -35 33 -57 75 -57c55 0 86 34 86 88c0 52 -27 75 -79 75c-9 0 -20 -1 -28 -3c1 11 1 18 1 24s0 12 -1 20c9 -1 18 -1 30 -1c50 0 70 30 70 76c0 40 -25 65 -65 65c-34 0 -58 -16 -67 -51
h-13c-7 22 -14 39 -25 55c34 26 82 39 127 39c61 0 141 -21 141 -96c0 -60 -45 -89 -100 -99v-4c61 -4 117 -29 117 -98z" />
    <glyph glyph-name="acute" unicode="&#xb4;" horiz-adv-x="333" 
d="M283 718c0 -12 -7 -20 -20 -32c-33 -32 -88 -82 -120 -111h-40l-2 3c32 49 71 113 87 141c13 21 22 29 48 29c25 0 47 -7 47 -30z" />
    <glyph glyph-name="mu" unicode="&#xb5;" horiz-adv-x="580" 
d="M518 476c-5 -58 -7 -173 -7 -233v-108c0 -48 7 -79 40 -79c15 0 29 3 39 9v-23c-24 -27 -72 -50 -126 -50c-50 0 -75 35 -79 94c-17 -45 -63 -98 -144 -98c-56 0 -88 19 -105 45h-4v-62c0 -144 14 -192 52 -231l-2 -5c-39 -4 -67 -6 -84 -6c-8 0 -22 2 -42 6
c-3 12 -5 34 -5 50c0 52 17 215 17 342v98c0 67 -6 207 -11 251c20 -1 45 -2 70 -2s50 1 70 2c-3 -62 -5 -177 -5 -252v-28c0 -62 11 -131 79 -131c70 0 110 51 110 142v67c0 60 -2 145 -7 202c22 -1 47 -2 72 -2s50 1 72 2z" />
    <glyph glyph-name="paragraph" unicode="&#xb6;" horiz-adv-x="554" 
d="M253 482h69c70 0 120 4 150 7v-24c-20 -6 -74 -13 -116 -17v-422c0 -75 -5 -128 -18 -172c-23 -81 -78 -121 -147 -121c-49 0 -116 20 -116 87c0 34 24 62 59 62c37 0 53 -24 53 -48c0 -10 -6 -22 -11 -28c-5 -7 -7 -13 -7 -20c0 -16 14 -22 29 -22c46 0 84 34 100 106
c10 44 13 89 13 143v98h-28c-99 0 -234 34 -234 194c0 146 91 177 204 177z" />
    <glyph glyph-name="periodcentered" unicode="&#xb7;" horiz-adv-x="260" 
d="M206 256c0 -42 -34 -77 -76 -77s-76 35 -76 77c0 41 34 76 76 76s76 -35 76 -76z" />
    <glyph glyph-name="cedilla" unicode="&#xb8;" horiz-adv-x="333" 
d="M269 -140c0 -63 -54 -88 -116 -88c-23 0 -58 5 -82 11l8 29c13 -5 41 -8 58 -8c32 0 64 12 64 53c0 31 -26 42 -50 42c-15 0 -34 -3 -50 -8l-5 17c13 20 34 58 48 92h34l-32 -72c10 2 25 3 33 3c38 0 90 -18 90 -71z" />
    <glyph glyph-name="onesuperior" unicode="&#xb9;" horiz-adv-x="422" 
d="M280 691l7 -6c-4 -44 -6 -109 -6 -163v-104c0 -55 1 -105 6 -159c-19 1 -37 1 -56 1c-18 0 -39 0 -57 -1c4 54 6 154 6 209v148h-106v26c69 11 151 30 206 49z" />
    <glyph glyph-name="ordmasculine" unicode="&#xba;" horiz-adv-x="500" 
d="M250 685c138 0 199 -82 199 -187c0 -109 -73 -189 -199 -189c-145 0 -197 103 -197 189c0 104 64 187 197 187zM251 649c-68 0 -80 -86 -80 -151c0 -62 16 -152 80 -152c63 0 80 87 80 152c0 64 -14 151 -80 151z" />
    <glyph glyph-name="guillemotright" unicode="&#xbb;" horiz-adv-x="464" 
d="M406 240c-42 -68 -100 -165 -122 -205c-20 13 -48 28 -69 38c36 51 89 130 112 167c-23 37 -76 116 -112 167c21 10 49 25 69 38c22 -40 80 -137 122 -205zM249 240c-42 -68 -100 -165 -122 -205c-20 13 -48 28 -69 38c36 51 89 130 112 167c-23 37 -76 116 -112 167
c21 10 49 25 69 38c22 -40 80 -137 122 -205z" />
    <glyph glyph-name="onequarter" unicode="&#xbc;" horiz-adv-x="945" 
d="M865 101c-16 0 -37 1 -63 1c0 -48 2 -79 4 -103c-18 1 -36 1 -51 1s-36 0 -50 -1c3 26 6 55 6 103c-57 0 -138 -1 -194 -3v39c57 80 139 203 194 287c18 -1 42 -2 51 -2c13 0 30 1 45 2c-4 -82 -5 -189 -5 -272c26 0 47 1 63 3c-1 -9 -1 -20 -1 -26c0 -7 0 -18 1 -29z
M711 153v197h-4c-43 -61 -97 -142 -130 -197h134zM723 728c-91 -152 -388 -675 -477 -843l-53 17c108 179 408 710 476 844zM280 691l7 -6c-4 -44 -6 -109 -6 -163v-104c0 -55 1 -105 6 -159c-19 1 -37 1 -56 1c-18 0 -39 0 -57 -1c4 54 6 154 6 209v148h-106v26
c69 11 151 30 206 49z" />
    <glyph glyph-name="onehalf" unicode="&#xbd;" horiz-adv-x="945" 
d="M882 0c-60 1 -116 2 -164 2c-52 0 -99 0 -152 -1v25c166 142 200 210 200 284c0 36 -17 70 -61 70c-46 0 -71 -35 -76 -68l-12 -2c-8 21 -22 43 -34 54c28 35 78 64 148 64c79 0 145 -42 145 -112c0 -61 -34 -104 -97 -154c-37 -29 -69 -57 -91 -78h26c57 0 118 2 168 6
c-1 -19 -1 -37 -1 -47c0 -12 0 -26 1 -43zM707 728c-91 -152 -388 -675 -477 -843l-53 17c108 179 408 710 476 844zM280 691l7 -6c-4 -44 -6 -109 -6 -163v-104c0 -55 1 -105 6 -159c-19 1 -37 1 -56 1c-18 0 -39 0 -57 -1c4 54 6 154 6 209v148h-106v26
c69 11 151 30 206 49z" />
    <glyph glyph-name="threequarters" unicode="&#xbe;" horiz-adv-x="945" 
d="M865 101c-16 0 -37 1 -63 1c0 -48 2 -79 4 -103c-18 1 -36 1 -51 1s-36 0 -50 -1c3 26 6 55 6 103c-57 0 -138 -1 -194 -3v39c57 80 139 203 194 287c18 -1 42 -2 51 -2c13 0 30 1 45 2c-4 -82 -5 -189 -5 -272c26 0 47 1 63 3c-1 -9 -1 -20 -1 -26c0 -7 0 -18 1 -29z
M711 153v197h-4c-43 -61 -97 -142 -130 -197h134zM728 728c-91 -152 -388 -675 -477 -843l-54 17c108 179 408 710 476 844zM365 385c0 -99 -99 -132 -179 -132c-41 0 -89 6 -124 27c5 14 15 50 20 72h14c8 -35 33 -57 75 -57c55 0 86 34 86 88c0 52 -27 75 -79 75
c-9 0 -20 -1 -28 -3c1 11 1 18 1 24s0 12 -1 20c9 -1 18 -1 30 -1c50 0 70 30 70 76c0 40 -25 65 -65 65c-34 0 -58 -16 -67 -51h-13c-7 22 -14 39 -25 55c34 26 82 39 127 39c61 0 141 -21 141 -96c0 -60 -45 -89 -100 -99v-4c61 -4 117 -29 117 -98z" />
    <glyph glyph-name="questiondown" unicode="&#xbf;" horiz-adv-x="410" 
d="M129 408c0 42 34 77 76 77s76 -35 76 -77c0 -41 -34 -76 -76 -76s-76 35 -76 76zM30 -83c0 64 38 110 90 156c48 42 74 66 74 103c0 29 -17 49 -48 49c-22 0 -37 -10 -48 -23l-12 6c5 15 9 33 11 47c13 7 43 14 75 14c87 0 139 -44 139 -124c0 -56 -31 -97 -76 -141
c-52 -50 -73 -73 -73 -111c0 -43 28 -66 66 -66c42 0 69 26 79 62h22c1 -27 6 -61 10 -81c-30 -22 -83 -37 -135 -37c-104 0 -174 49 -174 146z" />
    <glyph glyph-name="Agrave" unicode="&#xc0;" horiz-adv-x="662" 
d="M650 1l-3 -3c-35 1 -68 2 -92 2c-15 0 -40 -1 -71 -2c-15 58 -45 157 -72 238c-34 1 -84 1 -122 1c-39 0 -85 0 -116 -1c-30 -73 -67 -181 -82 -238c-11 1 -30 2 -43 2c-17 0 -35 -1 -52 -2l-3 3c111 234 211 461 301 682h105c75 -217 199 -559 250 -682zM394 292
c-19 59 -59 178 -90 259c-31 -68 -82 -190 -108 -259c26 -1 62 -1 91 -1c33 0 77 0 107 1zM368 733l-2 -3h-40c-32 29 -87 79 -121 111c-12 12 -20 20 -20 32c0 23 23 30 48 30c26 0 35 -8 47 -29c17 -28 56 -92 88 -141z" />
    <glyph glyph-name="Aacute" unicode="&#xc1;" horiz-adv-x="662" 
d="M650 1l-3 -3c-35 1 -68 2 -92 2c-15 0 -40 -1 -71 -2c-15 58 -45 157 -72 238c-34 1 -84 1 -122 1c-39 0 -85 0 -116 -1c-30 -73 -67 -181 -82 -238c-11 1 -30 2 -43 2c-17 0 -35 -1 -52 -2l-3 3c111 234 211 461 301 682h105c75 -217 199 -559 250 -682zM394 292
c-19 59 -59 178 -90 259c-31 -68 -82 -190 -108 -259c26 -1 62 -1 91 -1c33 0 77 0 107 1zM479 873c0 -12 -7 -20 -20 -32c-33 -32 -88 -82 -120 -111h-40l-2 3c32 49 71 113 87 141c13 21 22 29 48 29c25 0 47 -7 47 -30z" />
    <glyph glyph-name="Acircumflex" unicode="&#xc2;" horiz-adv-x="662" 
d="M650 1l-3 -3c-35 1 -68 2 -92 2c-15 0 -40 -1 -71 -2c-15 58 -45 157 -72 238c-34 1 -84 1 -122 1c-39 0 -85 0 -116 -1c-30 -73 -67 -181 -82 -238c-11 1 -30 2 -43 2c-17 0 -35 -1 -52 -2l-3 3c111 234 211 461 301 682h105c75 -217 199 -559 250 -682zM394 292
c-19 59 -59 178 -90 259c-31 -68 -82 -190 -108 -259c26 -1 62 -1 91 -1c33 0 77 0 107 1zM500 751l-38 -7l-115 94l-115 -94l-38 7v6c37 40 96 108 138 159h30c42 -51 101 -119 138 -159v-6z" />
    <glyph glyph-name="Atilde" unicode="&#xc3;" horiz-adv-x="662" 
d="M650 1l-3 -3c-35 1 -68 2 -92 2c-15 0 -40 -1 -71 -2c-15 58 -45 157 -72 238c-34 1 -84 1 -122 1c-39 0 -85 0 -116 -1c-30 -73 -67 -181 -82 -238c-11 1 -30 2 -43 2c-17 0 -35 -1 -52 -2l-3 3c111 234 211 461 301 682h105c75 -217 199 -559 250 -682zM394 292
c-19 59 -59 178 -90 259c-31 -68 -82 -190 -108 -259c26 -1 62 -1 91 -1c33 0 77 0 107 1zM514 867c-15 -79 -46 -116 -97 -116c-28 0 -54 11 -87 32c-29 19 -50 29 -68 29c-28 0 -44 -16 -57 -57l-27 7c14 71 41 115 96 115c29 0 53 -9 90 -33c25 -16 46 -26 63 -26
c32 0 48 17 61 58z" />
    <glyph glyph-name="Adieresis" unicode="&#xc4;" horiz-adv-x="662" 
d="M650 1l-3 -3c-35 1 -68 2 -92 2c-15 0 -40 -1 -71 -2c-15 58 -45 157 -72 238c-34 1 -84 1 -122 1c-39 0 -85 0 -116 -1c-30 -73 -67 -181 -82 -238c-11 1 -30 2 -43 2c-17 0 -35 -1 -52 -2l-3 3c111 234 211 461 301 682h105c75 -217 199 -559 250 -682zM394 292
c-19 59 -59 178 -90 259c-31 -68 -82 -190 -108 -259c26 -1 62 -1 91 -1c33 0 77 0 107 1zM508 814c0 -35 -29 -63 -63 -63c-35 0 -63 27 -63 63c0 35 28 62 63 62c34 0 63 -27 63 -62zM311 814c0 -35 -28 -63 -62 -63c-36 0 -64 27 -64 63c0 35 28 62 64 62
c34 0 62 -27 62 -62z" />
    <glyph glyph-name="Aring" unicode="&#xc5;" horiz-adv-x="662" 
d="M650 1l-3 -3c-35 1 -68 2 -92 2c-15 0 -40 -1 -71 -2c-15 58 -45 157 -72 238c-34 1 -84 1 -122 1c-39 0 -85 0 -116 -1c-30 -73 -67 -181 -82 -238c-11 1 -30 2 -43 2c-17 0 -35 -1 -52 -2l-3 3c104 217 203 435 286 643c-35 15 -54 46 -54 92c0 75 56 112 119 112
c70 0 117 -39 117 -107c0 -46 -22 -76 -51 -92c74 -217 190 -529 239 -648zM394 292c-19 59 -59 178 -90 259c-31 -68 -82 -190 -108 -259c26 -1 62 -1 91 -1c33 0 77 0 107 1zM345 824c-49 0 -71 -34 -71 -84c0 -44 23 -86 71 -86c47 0 69 35 69 86c0 45 -21 84 -69 84z
" />
    <glyph glyph-name="AE" unicode="&#xc6;" horiz-adv-x="865" 
d="M453 -2c4 80 6 155 6 209v24c-39 2 -79 2 -121 2c-39 0 -82 0 -110 -2c-37 -60 -99 -170 -132 -233c-16 2 -28 2 -39 2c-18 0 -30 -1 -53 -2l-4 2c143 212 316 477 446 682c26 -2 76 -3 108 -3c66 0 195 1 261 3c-1 -19 -1 -30 -1 -38c0 -7 0 -19 1 -37
c-43 8 -139 14 -217 14c-2 -49 -4 -127 -4 -203v-31c100 0 165 5 202 10c-1 -19 -1 -31 -1 -39c0 -7 0 -19 1 -37c-37 5 -102 8 -202 8v-36c0 -86 2 -188 4 -234c71 0 150 4 222 17c-1 -20 -1 -32 -1 -40c0 -7 0 -18 1 -38c-63 1 -181 3 -266 3c-26 0 -78 -2 -101 -3z
M457 293v298h-4c-53 -82 -137 -214 -187 -298c24 -2 61 -2 91 -2c32 0 70 0 100 2z" />
    <glyph glyph-name="Ccedilla" unicode="&#xc7;" horiz-adv-x="689" 
d="M391 -14c-214 12 -341 135 -341 355c0 219 143 353 380 353c111 0 198 -25 244 -47c-9 -25 -21 -71 -28 -119l-24 -2c-21 75 -85 110 -173 110c-143 0 -243 -95 -243 -294c0 -178 82 -290 256 -290c71 0 142 25 185 77l12 -4c0 -30 -6 -71 -10 -83
c-42 -30 -120 -57 -220 -57l-29 -61c11 2 23 3 31 3c38 0 90 -18 90 -71c0 -63 -54 -88 -116 -88c-23 0 -58 5 -82 11l7 29c14 -5 42 -8 59 -8c31 0 64 12 64 53c0 33 -26 42 -50 42c-16 0 -34 -3 -51 -7l-4 16c13 20 32 56 43 82z" />
    <glyph glyph-name="Egrave" unicode="&#xc8;" horiz-adv-x="499" 
d="M188 1c-27 0 -85 -2 -108 -3c5 80 8 212 8 302v100c0 90 -3 202 -8 282c23 -1 76 -3 108 -3c66 0 195 1 261 3c-1 -19 -1 -30 -1 -38c0 -7 0 -19 1 -37c-43 8 -139 14 -217 14c-2 -49 -4 -127 -4 -203v-31c100 0 165 5 202 10c-1 -19 -1 -31 -1 -39c0 -7 0 -19 1 -37
c-37 5 -102 8 -202 8v-36c0 -86 2 -188 4 -234c71 0 150 4 222 17c-1 -20 -1 -32 -1 -40c0 -7 0 -18 1 -38c-31 1 -77 1 -125 2s-98 1 -141 1zM284 732l-2 -3h-40c-32 29 -87 79 -121 111c-12 12 -20 20 -20 32c0 23 23 30 48 30c26 0 35 -8 47 -29c17 -28 56 -92 88 -141z
" />
    <glyph glyph-name="Eacute" unicode="&#xc9;" horiz-adv-x="499" 
d="M188 1c-27 0 -85 -2 -108 -3c5 80 8 212 8 302v100c0 90 -3 202 -8 282c23 -1 76 -3 108 -3c66 0 195 1 261 3c-1 -19 -1 -30 -1 -38c0 -7 0 -19 1 -37c-43 8 -139 14 -217 14c-2 -49 -4 -127 -4 -203v-31c100 0 165 5 202 10c-1 -19 -1 -31 -1 -39c0 -7 0 -19 1 -37
c-37 5 -102 8 -202 8v-36c0 -86 2 -188 4 -234c71 0 150 4 222 17c-1 -20 -1 -32 -1 -40c0 -7 0 -18 1 -38c-31 1 -77 1 -125 2s-98 1 -141 1zM422 872c0 -12 -7 -20 -20 -32c-33 -32 -88 -82 -120 -111h-40l-2 3c32 49 71 113 87 141c13 21 22 29 48 29c25 0 47 -7 47 -30z
" />
    <glyph glyph-name="Ecircumflex" unicode="&#xca;" horiz-adv-x="499" 
d="M188 1c-27 0 -85 -2 -108 -3c5 80 8 212 8 302v100c0 90 -3 202 -8 282c23 -1 76 -3 108 -3c66 0 195 1 261 3c-1 -19 -1 -30 -1 -38c0 -7 0 -19 1 -37c-43 8 -139 14 -217 14c-2 -49 -4 -127 -4 -203v-31c100 0 165 5 202 10c-1 -19 -1 -31 -1 -39c0 -7 0 -19 1 -37
c-37 5 -102 8 -202 8v-36c0 -86 2 -188 4 -234c71 0 150 4 222 17c-1 -20 -1 -32 -1 -40c0 -7 0 -18 1 -38c-31 1 -77 1 -125 2s-98 1 -141 1zM415 751l-38 -7l-115 94l-115 -94l-38 7v6c37 40 96 108 138 159h30c42 -51 101 -119 138 -159v-6z" />
    <glyph glyph-name="Edieresis" unicode="&#xcb;" horiz-adv-x="499" 
d="M188 1c-27 0 -85 -2 -108 -3c5 80 8 212 8 302v100c0 90 -3 202 -8 282c23 -1 76 -3 108 -3c66 0 195 1 261 3c-1 -19 -1 -30 -1 -38c0 -7 0 -19 1 -37c-43 8 -139 14 -217 14c-2 -49 -4 -127 -4 -203v-31c100 0 165 5 202 10c-1 -19 -1 -31 -1 -39c0 -7 0 -19 1 -37
c-37 5 -102 8 -202 8v-36c0 -86 2 -188 4 -234c71 0 150 4 222 17c-1 -20 -1 -32 -1 -40c0 -7 0 -18 1 -38c-31 1 -77 1 -125 2s-98 1 -141 1zM425 814c0 -35 -29 -63 -63 -63c-35 0 -63 27 -63 63c0 35 28 62 63 62c34 0 63 -27 63 -62zM228 814c0 -35 -28 -63 -62 -63
c-36 0 -64 27 -64 63c0 35 28 62 64 62c34 0 62 -27 62 -62z" />
    <glyph glyph-name="Igrave" unicode="&#xcc;" horiz-adv-x="316" 
d="M236 -2c-27 1 -53 2 -78 2s-50 -1 -78 -2c5 80 8 212 8 302v100c0 90 -3 202 -8 282c28 -1 53 -2 78 -2s50 1 78 2c-5 -80 -8 -192 -8 -282v-100c0 -89 3 -222 8 -302zM234 733l-2 -3h-40c-32 29 -87 79 -121 111c-12 12 -20 20 -20 32c0 23 23 30 48 30
c26 0 35 -8 47 -29c17 -28 56 -92 88 -141z" />
    <glyph glyph-name="Iacute" unicode="&#xcd;" horiz-adv-x="316" 
d="M236 -2c-27 1 -53 2 -78 2s-50 -1 -78 -2c5 80 8 212 8 302v100c0 90 -3 202 -8 282c28 -1 53 -2 78 -2s50 1 78 2c-5 -80 -8 -192 -8 -282v-100c0 -89 3 -222 8 -302zM262 872c0 -12 -7 -20 -20 -32c-33 -32 -88 -82 -120 -111h-40l-2 3c32 49 71 113 87 141
c13 21 22 29 48 29c25 0 47 -7 47 -30z" />
    <glyph glyph-name="Icircumflex" unicode="&#xce;" horiz-adv-x="316" 
d="M236 -2c-27 1 -53 2 -78 2s-50 -1 -78 -2c5 80 8 212 8 302v100c0 90 -3 202 -8 282c28 -1 53 -2 78 -2s50 1 78 2c-5 -80 -8 -192 -8 -282v-100c0 -89 3 -222 8 -302zM311 751l-38 -7l-115 94l-115 -94l-38 7v6c37 40 96 108 138 159h30c42 -51 101 -119 138 -159v-6z
" />
    <glyph glyph-name="Idieresis" unicode="&#xcf;" horiz-adv-x="316" 
d="M236 -2c-27 1 -53 2 -78 2s-50 -1 -78 -2c5 80 8 212 8 302v100c0 90 -3 202 -8 282c28 -1 53 -2 78 -2s50 1 78 2c-5 -80 -8 -192 -8 -282v-100c0 -89 3 -222 8 -302zM319 815c0 -35 -29 -63 -63 -63c-35 0 -63 27 -63 63c0 35 28 62 63 62c34 0 63 -27 63 -62zM122 815
c0 -35 -28 -63 -62 -63c-36 0 -64 27 -64 63c0 35 28 62 64 62c34 0 62 -27 62 -62z" />
    <glyph glyph-name="Eth" unicode="&#xd0;" horiz-adv-x="795" 
d="M88 280v51c-28 0 -55 -1 -85 -2c1 12 1 22 1 28c0 5 0 14 -1 25c30 -1 57 -2 85 -2v28c0 86 -2 180 -8 274c39 -1 84 -2 117 -2c50 0 117 2 170 2c242 0 378 -86 378 -328c0 -264 -201 -356 -378 -356c-57 0 -125 2 -170 2c-28 0 -78 -1 -117 -2c6 84 8 213 8 282z
M231 402v-22c39 0 96 1 148 2c-1 -11 -1 -20 -1 -25c0 -6 0 -16 1 -28c-52 1 -109 2 -148 2v-55c0 -71 2 -158 5 -213c23 -5 60 -8 96 -8c117 0 254 50 254 299c0 219 -106 272 -236 272c-38 0 -81 -4 -114 -8c-3 -52 -5 -152 -5 -216z" />
    <glyph glyph-name="Ntilde" unicode="&#xd1;" horiz-adv-x="736" 
d="M557 241c7 -8 16 -18 26 -33l4 1v121c0 120 -7 272 -20 352c22 -1 40 -2 54 -2c13 0 31 1 41 2c-8 -80 -13 -232 -13 -352v-80c0 -102 2 -198 4 -253h-92c-80 105 -260 324 -381 462c-7 8 -16 18 -26 31l-3 -1v-139c0 -120 7 -272 20 -352c-17 1 -36 2 -49 2
s-34 -1 -47 -2c8 80 13 232 13 352v50c0 126 -3 241 -4 284h104c123 -149 268 -324 369 -443zM550 867c-15 -79 -46 -116 -97 -116c-28 0 -54 11 -87 32c-29 19 -50 29 -68 29c-28 0 -44 -16 -57 -57l-27 7c14 71 41 115 96 115c29 0 53 -9 90 -33c25 -16 46 -26 63 -26
c32 0 48 17 61 58z" />
    <glyph glyph-name="Ograve" unicode="&#xd2;" horiz-adv-x="829" 
d="M779 340c0 -215 -140 -357 -365 -357c-224 0 -364 139 -364 357s140 357 364 357c230 0 365 -136 365 -357zM620 340c0 195 -76 303 -206 303s-205 -102 -205 -303c0 -196 75 -301 205 -301s206 104 206 301zM436 730l-2 -3h-40c-32 29 -87 79 -121 111
c-12 12 -20 20 -20 32c0 23 23 30 48 30c26 0 35 -8 47 -29c17 -28 56 -92 88 -141z" />
    <glyph glyph-name="Oacute" unicode="&#xd3;" horiz-adv-x="829" 
d="M779 340c0 -215 -140 -357 -365 -357c-224 0 -364 139 -364 357s140 357 364 357c230 0 365 -136 365 -357zM620 340c0 195 -76 303 -206 303s-205 -102 -205 -303c0 -196 75 -301 205 -301s206 104 206 301zM574 873c0 -12 -7 -20 -20 -32c-33 -32 -88 -82 -120 -111
h-40l-2 3c32 49 71 113 87 141c13 21 22 29 48 29c25 0 47 -7 47 -30z" />
    <glyph glyph-name="Ocircumflex" unicode="&#xd4;" horiz-adv-x="829" 
d="M779 340c0 -215 -140 -357 -365 -357c-224 0 -364 139 -364 357s140 357 364 357c230 0 365 -136 365 -357zM620 340c0 195 -76 303 -206 303s-205 -102 -205 -303c0 -196 75 -301 205 -301s206 104 206 301zM567 751l-38 -7l-115 94l-115 -94l-38 7v6
c37 40 96 108 138 159h30c42 -51 101 -119 138 -159v-6z" />
    <glyph glyph-name="Otilde" unicode="&#xd5;" horiz-adv-x="829" 
d="M779 340c0 -215 -140 -357 -365 -357c-224 0 -364 139 -364 357s140 357 364 357c230 0 365 -136 365 -357zM620 340c0 195 -76 303 -206 303s-205 -102 -205 -303c0 -196 75 -301 205 -301s206 104 206 301zM582 867c-15 -79 -46 -116 -97 -116c-28 0 -54 11 -87 32
c-29 19 -50 29 -68 29c-28 0 -44 -16 -57 -57l-27 7c14 71 41 115 96 115c29 0 53 -9 90 -33c25 -16 46 -26 63 -26c32 0 48 17 61 58z" />
    <glyph glyph-name="Odieresis" unicode="&#xd6;" horiz-adv-x="829" 
d="M779 340c0 -215 -140 -357 -365 -357c-224 0 -364 139 -364 357s140 357 364 357c230 0 365 -136 365 -357zM620 340c0 195 -76 303 -206 303s-205 -102 -205 -303c0 -196 75 -301 205 -301s206 104 206 301zM576 814c0 -35 -29 -63 -63 -63c-35 0 -63 27 -63 63
c0 35 28 62 63 62c34 0 63 -27 63 -62zM379 814c0 -35 -28 -63 -62 -63c-36 0 -64 27 -64 63c0 35 28 62 64 62c34 0 62 -27 62 -62z" />
    <glyph glyph-name="multiply" unicode="&#xd7;" 
d="M370 129c-30 35 -92 98 -123 129l-7 7l-13 -13c-33 -33 -87 -90 -115 -124c-14 17 -29 32 -46 44c35 29 91 83 125 117l12 12l-8 8c-31 31 -94 93 -129 123c16 11 30 25 44 43c30 -35 93 -99 122 -128l8 -8l11 11c35 35 90 92 118 126c12 -17 27 -32 46 -44
c-35 -28 -93 -86 -126 -119l-12 -12l6 -6c34 -34 96 -93 131 -122c-16 -12 -31 -26 -44 -44z" />
    <glyph glyph-name="Oslash" unicode="&#xd8;" horiz-adv-x="829" 
d="M211 35c-25 -34 -51 -72 -75 -109c-11 10 -33 23 -47 28c26 33 58 74 81 106c-85 71 -120 174 -120 280c0 222 144 357 364 357c65 0 142 -12 195 -44c23 32 46 65 67 97c10 -9 31 -22 45 -28c-21 -25 -49 -62 -71 -92c94 -72 129 -179 129 -290
c0 -221 -146 -357 -365 -357c-69 0 -142 11 -203 52zM557 582c-37 45 -88 66 -142 66c-174 0 -210 -171 -210 -307c0 -67 8 -146 34 -193c95 127 220 299 318 434zM625 340c0 67 -8 145 -41 202c-74 -98 -230 -311 -320 -436c36 -50 90 -70 150 -70c173 0 211 168 211 304z
" />
    <glyph glyph-name="Ugrave" unicode="&#xd9;" horiz-adv-x="741" 
d="M674 682c-7 -91 -12 -212 -12 -381c0 -83 -14 -144 -37 -187c-42 -80 -119 -131 -246 -131c-199 0 -299 81 -299 288c0 62 3 123 3 173c0 110 -2 180 -6 238c27 -1 50 -2 75 -2c27 0 56 1 88 2c-10 -85 -15 -214 -15 -358c0 -163 20 -271 179 -271c93 0 138 43 164 112
c16 46 19 104 19 168c0 144 -6 268 -14 349c24 -1 41 -2 53 -2s31 1 48 2zM428 733l-2 -3h-40c-32 29 -87 79 -121 111c-12 12 -20 20 -20 32c0 23 23 30 48 30c26 0 35 -8 47 -29c17 -28 56 -92 88 -141z" />
    <glyph glyph-name="Uacute" unicode="&#xda;" horiz-adv-x="741" 
d="M674 682c-7 -91 -12 -212 -12 -381c0 -83 -14 -144 -37 -187c-42 -80 -119 -131 -246 -131c-199 0 -299 81 -299 288c0 62 3 123 3 173c0 110 -2 180 -6 238c27 -1 50 -2 75 -2c27 0 56 1 88 2c-10 -85 -15 -214 -15 -358c0 -163 20 -271 179 -271c93 0 138 43 164 112
c16 46 19 104 19 168c0 144 -6 268 -14 349c24 -1 41 -2 53 -2s31 1 48 2zM546 872c0 -12 -7 -20 -20 -32c-33 -32 -88 -82 -120 -111h-40l-2 3c32 49 71 113 87 141c13 21 22 29 48 29c25 0 47 -7 47 -30z" />
    <glyph glyph-name="Ucircumflex" unicode="&#xdb;" horiz-adv-x="741" 
d="M674 682c-7 -91 -12 -212 -12 -381c0 -83 -14 -144 -37 -187c-42 -80 -119 -131 -246 -131c-199 0 -299 81 -299 288c0 62 3 123 3 173c0 110 -2 180 -6 238c27 -1 50 -2 75 -2c27 0 56 1 88 2c-10 -85 -15 -214 -15 -358c0 -163 20 -271 179 -271c93 0 138 43 164 112
c16 46 19 104 19 168c0 144 -6 268 -14 349c24 -1 41 -2 53 -2s31 1 48 2zM559 751l-38 -7l-115 94l-115 -94l-38 7v6c37 40 96 108 138 159h30c42 -51 101 -119 138 -159v-6z" />
    <glyph glyph-name="Udieresis" unicode="&#xdc;" horiz-adv-x="741" 
d="M674 682c-7 -91 -12 -212 -12 -381c0 -83 -14 -144 -37 -187c-42 -80 -119 -131 -246 -131c-199 0 -299 81 -299 288c0 62 3 123 3 173c0 110 -2 180 -6 238c27 -1 50 -2 75 -2c27 0 56 1 88 2c-10 -85 -15 -214 -15 -358c0 -163 20 -271 179 -271c93 0 138 43 164 112
c16 46 19 104 19 168c0 144 -6 268 -14 349c24 -1 41 -2 53 -2s31 1 48 2zM560 814c0 -35 -29 -63 -63 -63c-35 0 -63 27 -63 63c0 35 28 62 63 62c34 0 63 -27 63 -62zM363 814c0 -35 -28 -63 -62 -63c-36 0 -64 27 -64 63c0 35 28 62 64 62c34 0 62 -27 62 -62z" />
    <glyph glyph-name="Yacute" unicode="&#xdd;" horiz-adv-x="606" 
d="M602 680c-58 -87 -179 -289 -230 -390v-40c0 -90 2 -172 8 -252c-27 1 -52 2 -77 2s-50 -1 -78 -2c6 80 8 162 8 252v37c-51 95 -168 296 -229 393l3 2c38 -1 69 -2 96 -2c30 0 51 1 77 2c39 -85 108 -218 162 -314h3c55 98 125 241 153 314c19 -1 35 -2 47 -2
c16 0 45 1 54 2zM485 872c0 -12 -7 -20 -20 -32c-33 -32 -88 -82 -120 -111h-40l-2 3c32 49 71 113 87 141c13 21 22 29 48 29c25 0 47 -7 47 -30z" />
    <glyph glyph-name="Thorn" unicode="&#xde;" horiz-adv-x="585" 
d="M228 515v-285h31c109 0 145 55 145 158c0 82 -36 131 -122 131c-17 0 -37 -1 -54 -4zM228 173c0 -61 4 -130 8 -175c-28 1 -53 2 -78 2s-50 -1 -78 -2c6 93 8 187 8 281v145c0 87 -3 172 -8 258c28 -1 53 -2 78 -2s50 1 78 2c-4 -37 -6 -75 -7 -113c42 0 84 3 126 3
c118 0 195 -48 195 -175c0 -189 -159 -217 -279 -217h-43v-7z" />
    <glyph glyph-name="germandbls" unicode="&#xdf;" horiz-adv-x="623" 
d="M598 178c0 -128 -102 -187 -210 -187c-46 0 -102 9 -122 16c2 21 11 71 22 112h22c8 -50 42 -84 86 -84c46 0 89 23 89 85c0 55 -43 83 -112 119c-63 33 -106 63 -106 126c0 60 35 95 95 144c41 34 57 64 57 108c0 64 -40 96 -95 96c-90 0 -120 -80 -120 -178v-235
c0 -90 2 -222 8 -302c-22 1 -47 2 -72 2s-50 -1 -72 -2c6 80 8 212 8 302v51c0 50 -1 112 -1 140c0 92 25 159 89 210c36 29 102 54 166 54c86 0 179 -30 179 -127c0 -53 -32 -81 -79 -118c-29 -23 -49 -49 -49 -81c0 -41 27 -61 74 -87c78 -44 143 -84 143 -164z" />
    <glyph glyph-name="agrave" unicode="&#xe0;" horiz-adv-x="515" 
d="M309 61c-23 -32 -68 -70 -140 -70s-136 43 -136 134c0 81 48 123 141 141c113 22 134 31 134 65v11c0 52 -22 95 -93 95c-50 0 -89 -33 -100 -101h-22c-5 39 -15 73 -23 93c37 37 113 63 183 63c157 0 188 -78 188 -181c0 -47 -5 -141 -5 -192c0 -48 9 -80 51 -80
c8 0 15 0 21 2v-27c-25 -12 -66 -21 -105 -21c-61 0 -89 28 -94 68zM309 252c-105 -19 -149 -41 -149 -110c0 -57 30 -81 70 -81c36 0 68 26 75 55c3 33 4 94 4 136zM275 578l-2 -3h-40c-32 29 -87 79 -121 111c-12 12 -20 20 -20 32c0 23 23 30 48 30c26 0 35 -8 47 -29
c17 -28 56 -92 88 -141z" />
    <glyph glyph-name="aacute" unicode="&#xe1;" horiz-adv-x="515" 
d="M309 61c-23 -32 -68 -70 -140 -70s-136 43 -136 134c0 81 48 123 141 141c113 22 134 31 134 65v11c0 52 -22 95 -93 95c-50 0 -89 -33 -100 -101h-22c-5 39 -15 73 -23 93c37 37 113 63 183 63c157 0 188 -78 188 -181c0 -47 -5 -141 -5 -192c0 -48 9 -80 51 -80
c8 0 15 0 21 2v-27c-25 -12 -66 -21 -105 -21c-61 0 -89 28 -94 68zM309 252c-105 -19 -149 -41 -149 -110c0 -57 30 -81 70 -81c36 0 68 26 75 55c3 33 4 94 4 136zM407 718c0 -12 -7 -20 -20 -32c-33 -32 -88 -82 -120 -111h-40l-2 3c32 49 71 113 87 141
c13 21 22 29 48 29c25 0 47 -7 47 -30z" />
    <glyph glyph-name="acircumflex" unicode="&#xe2;" horiz-adv-x="515" 
d="M309 61c-23 -32 -68 -70 -140 -70s-136 43 -136 134c0 81 48 123 141 141c113 22 134 31 134 65v11c0 52 -22 95 -93 95c-50 0 -89 -33 -100 -101h-22c-5 39 -15 73 -23 93c37 37 113 63 183 63c157 0 188 -78 188 -181c0 -47 -5 -141 -5 -192c0 -48 9 -80 51 -80
c8 0 15 0 21 2v-27c-25 -12 -66 -21 -105 -21c-61 0 -89 28 -94 68zM309 252c-105 -19 -149 -41 -149 -110c0 -57 30 -81 70 -81c36 0 68 26 75 55c3 33 4 94 4 136zM418 583l-38 -7l-115 94l-115 -94l-38 7v6c37 40 96 108 138 159h30c42 -51 101 -119 138 -159v-6z" />
    <glyph glyph-name="atilde" unicode="&#xe3;" horiz-adv-x="515" 
d="M309 61c-23 -32 -68 -70 -140 -70s-136 43 -136 134c0 81 48 123 141 141c113 22 134 31 134 65v11c0 52 -22 95 -93 95c-50 0 -89 -33 -100 -101h-22c-5 39 -15 73 -23 93c37 37 113 63 183 63c157 0 188 -78 188 -181c0 -47 -5 -141 -5 -192c0 -48 9 -80 51 -80
c8 0 15 0 21 2v-27c-25 -12 -66 -21 -105 -21c-61 0 -89 28 -94 68zM309 252c-105 -19 -149 -41 -149 -110c0 -57 30 -81 70 -81c36 0 68 26 75 55c3 33 4 94 4 136zM450 700c-15 -79 -46 -116 -97 -116c-28 0 -54 11 -87 32c-29 19 -50 29 -68 29c-28 0 -44 -16 -57 -57
l-27 7c14 71 41 115 96 115c29 0 53 -9 90 -33c25 -16 46 -26 63 -26c32 0 48 17 61 58z" />
    <glyph glyph-name="adieresis" unicode="&#xe4;" horiz-adv-x="515" 
d="M309 61c-23 -32 -68 -70 -140 -70s-136 43 -136 134c0 81 48 123 141 141c113 22 134 31 134 65v11c0 52 -22 95 -93 95c-50 0 -89 -33 -100 -101h-22c-5 39 -15 73 -23 93c37 37 113 63 183 63c157 0 188 -78 188 -181c0 -47 -5 -141 -5 -192c0 -48 9 -80 51 -80
c8 0 15 0 21 2v-27c-25 -12 -66 -21 -105 -21c-61 0 -89 28 -94 68zM309 252c-105 -19 -149 -41 -149 -110c0 -57 30 -81 70 -81c36 0 68 26 75 55c3 33 4 94 4 136zM445 646c0 -35 -27 -63 -62 -63s-63 27 -63 63c0 35 28 62 63 62s62 -27 62 -62zM262 646
c0 -35 -28 -63 -63 -63s-63 27 -63 63c0 35 28 62 63 62s63 -27 63 -62z" />
    <glyph glyph-name="aring" unicode="&#xe5;" horiz-adv-x="515" 
d="M309 61c-23 -32 -68 -70 -140 -70s-136 43 -136 134c0 81 48 123 141 141c113 22 134 31 134 65v11c0 52 -22 95 -93 95c-50 0 -89 -33 -100 -101h-22c-5 39 -15 73 -23 93c37 37 113 63 183 63c157 0 188 -78 188 -181c0 -47 -5 -141 -5 -192c0 -48 9 -80 51 -80
c8 0 15 0 21 2v-27c-25 -12 -66 -21 -105 -21c-61 0 -89 28 -94 68zM309 252c-105 -19 -149 -41 -149 -110c0 -57 30 -81 70 -81c36 0 68 26 75 55c3 33 4 94 4 136zM269 542c-75 0 -119 38 -119 107c0 75 56 112 119 112c70 0 117 -39 117 -107c0 -74 -55 -112 -117 -112z
M269 738c-49 0 -71 -35 -71 -85c0 -44 23 -86 71 -86c47 0 69 35 69 86c0 45 -21 85 -69 85z" />
    <glyph glyph-name="ae" unicode="&#xe6;" horiz-adv-x="809" 
d="M557 491c148 0 209 -101 209 -210c0 -9 -1 -23 -3 -46l-6 -6c-68 1 -148 2 -204 2h-106v-13c0 -93 42 -172 160 -172c58 0 104 26 128 58l16 -7c-6 -24 -11 -51 -11 -66c-41 -29 -104 -48 -177 -48c-94 0 -182 46 -212 112c-30 -62 -85 -108 -177 -108
c-72 0 -141 47 -141 138c0 81 48 123 141 141c113 22 134 31 134 65v11c0 52 -22 95 -93 95c-50 0 -89 -33 -100 -101h-22c-5 39 -15 73 -23 93c37 37 113 63 183 63c75 0 130 -27 149 -65c28 36 96 64 155 64zM311 252c-107 -19 -151 -41 -151 -110c0 -57 30 -86 70 -86
c44 0 71 27 77 64c3 33 4 90 4 132zM448 281h78c41 0 87 1 110 2c0 70 -5 163 -87 163c-76 0 -100 -100 -101 -165z" />
    <glyph glyph-name="ccedilla" unicode="&#xe7;" horiz-adv-x="489" 
d="M266 -13c-128 11 -220 87 -220 253c0 177 131 249 264 249c67 0 133 -19 163 -38c-10 -23 -24 -73 -29 -105l-22 -2c-10 50 -39 93 -102 93c-97 0 -135 -91 -135 -195c0 -107 41 -195 154 -195c46 0 89 19 114 56l15 -7c-5 -18 -10 -49 -10 -69c-27 -22 -88 -41 -159 -41
l-21 -53c11 2 25 3 33 3c38 0 90 -18 90 -71c0 -63 -54 -88 -116 -88c-23 0 -58 5 -82 11l7 29c14 -5 42 -8 59 -8c31 0 64 12 64 53c0 33 -26 42 -50 42c-16 0 -34 -3 -51 -7l-4 16c13 18 28 51 38 74z" />
    <glyph glyph-name="egrave" unicode="&#xe8;" horiz-adv-x="544" 
d="M183 281h78c41 0 87 1 110 2c0 70 -5 163 -87 163c-76 0 -100 -100 -101 -165zM342 46c58 0 104 26 128 58l16 -7c-6 -24 -11 -51 -11 -66c-41 -29 -104 -48 -176 -48c-162 0 -253 96 -253 252c0 148 90 256 246 256c148 0 209 -101 209 -210c0 -9 -1 -23 -3 -46l-6 -6
c-68 1 -148 2 -204 2h-106v-13c0 -93 42 -172 160 -172zM334 578l-2 -3h-40c-32 29 -87 79 -121 111c-12 12 -20 20 -20 32c0 23 23 30 48 30c26 0 35 -8 47 -29c17 -28 56 -92 88 -141z" />
    <glyph glyph-name="eacute" unicode="&#xe9;" horiz-adv-x="544" 
d="M183 281h78c41 0 87 1 110 2c0 70 -5 163 -87 163c-76 0 -100 -100 -101 -165zM342 46c58 0 104 26 128 58l16 -7c-6 -24 -11 -51 -11 -66c-41 -29 -104 -48 -176 -48c-162 0 -253 96 -253 252c0 148 90 256 246 256c148 0 209 -101 209 -210c0 -9 -1 -23 -3 -46l-6 -6
c-68 1 -148 2 -204 2h-106v-13c0 -93 42 -172 160 -172zM430 718c0 -12 -7 -20 -20 -32c-33 -32 -88 -82 -120 -111h-40l-2 3c32 49 71 113 87 141c13 21 22 29 48 29c25 0 47 -7 47 -30z" />
    <glyph glyph-name="ecircumflex" unicode="&#xea;" horiz-adv-x="544" 
d="M183 281h78c41 0 87 1 110 2c0 70 -5 163 -87 163c-76 0 -100 -100 -101 -165zM342 46c58 0 104 26 128 58l16 -7c-6 -24 -11 -51 -11 -66c-41 -29 -104 -48 -176 -48c-162 0 -253 96 -253 252c0 148 90 256 246 256c148 0 209 -101 209 -210c0 -9 -1 -23 -3 -46l-6 -6
c-68 1 -148 2 -204 2h-106v-13c0 -93 42 -172 160 -172zM445 583l-38 -7l-115 94l-115 -94l-38 7v6c37 40 96 108 138 159h30c42 -51 101 -119 138 -159v-6z" />
    <glyph glyph-name="edieresis" unicode="&#xeb;" horiz-adv-x="544" 
d="M183 281h78c41 0 87 1 110 2c0 70 -5 163 -87 163c-76 0 -100 -100 -101 -165zM342 46c58 0 104 26 128 58l16 -7c-6 -24 -11 -51 -11 -66c-41 -29 -104 -48 -176 -48c-162 0 -253 96 -253 252c0 148 90 256 246 256c148 0 209 -101 209 -210c0 -9 -1 -23 -3 -46l-6 -6
c-68 1 -148 2 -204 2h-106v-13c0 -93 42 -172 160 -172zM462 646c0 -35 -29 -63 -63 -63c-35 0 -63 27 -63 63c0 35 28 62 63 62c34 0 63 -27 63 -62zM265 646c0 -35 -28 -63 -62 -63c-36 0 -64 27 -64 63c0 35 28 62 64 62c34 0 62 -27 62 -62z" />
    <glyph glyph-name="igrave" unicode="&#xec;" horiz-adv-x="286" 
d="M215 -2c-22 1 -47 2 -72 2s-49 -1 -72 -2c5 55 7 167 7 227v46c0 60 -2 148 -7 205c23 -1 47 -2 72 -2s50 1 72 2c-5 -59 -7 -145 -7 -205v-46c0 -60 2 -170 7 -227zM214 573l-2 -3h-40c-32 29 -87 79 -121 111c-12 12 -20 20 -20 32c0 23 23 30 48 30c26 0 35 -8 47 -29
c17 -28 56 -92 88 -141z" />
    <glyph glyph-name="iacute" unicode="&#xed;" horiz-adv-x="286" 
d="M215 -2c-22 1 -47 2 -72 2s-49 -1 -72 -2c5 55 7 167 7 227v46c0 60 -2 148 -7 205c23 -1 47 -2 72 -2s50 1 72 2c-5 -59 -7 -145 -7 -205v-46c0 -60 2 -170 7 -227zM258 718c0 -12 -7 -20 -20 -32c-33 -32 -88 -82 -120 -111h-40l-2 3c32 49 71 113 87 141
c13 21 22 29 48 29c25 0 47 -7 47 -30z" />
    <glyph glyph-name="icircumflex" unicode="&#xee;" horiz-adv-x="286" 
d="M215 -2c-22 1 -47 2 -72 2s-49 -1 -72 -2c5 55 7 167 7 227v46c0 60 -2 148 -7 205c23 -1 47 -2 72 -2s50 1 72 2c-5 -59 -7 -145 -7 -205v-46c0 -60 2 -170 7 -227zM298 583l-38 -7l-115 94l-115 -94l-38 7v6c37 40 96 108 138 159h30c42 -51 101 -119 138 -159v-6z" />
    <glyph glyph-name="idieresis" unicode="&#xef;" horiz-adv-x="286" 
d="M215 -2c-22 1 -47 2 -72 2s-49 -1 -72 -2c5 55 7 167 7 227v46c0 60 -2 148 -7 205c23 -1 47 -2 72 -2s50 1 72 2c-5 -59 -7 -145 -7 -205v-46c0 -60 2 -170 7 -227zM297 646c0 -35 -27 -63 -62 -63s-63 27 -63 63c0 35 28 62 63 62s62 -27 62 -62zM114 646
c0 -35 -28 -63 -63 -63s-63 27 -63 63c0 35 28 62 63 62s63 -27 63 -62z" />
    <glyph glyph-name="eth" unicode="&#xf0;" horiz-adv-x="612" 
d="M423 238c0 77 -16 202 -117 202c-102 0 -117 -124 -117 -202c0 -77 16 -203 117 -203c102 0 117 126 117 203zM565 260c0 -155 -89 -278 -260 -278c-156 0 -258 99 -258 256s102 252 258 252c18 0 34 -2 50 -8c-13 33 -62 94 -103 127c-39 -15 -94 -38 -131 -56
c-2 14 -9 36 -16 48c33 10 78 25 114 41c-30 27 -72 56 -120 84v4l52 24c53 -24 105 -51 144 -79c37 13 84 32 119 50c5 -19 11 -35 16 -43c-30 -10 -64 -23 -98 -37c144 -110 233 -212 233 -385z" />
    <glyph glyph-name="ntilde" unicode="&#xf1;" horiz-adv-x="597" 
d="M209 476c-4 -21 -5 -47 -5 -69h4c35 46 90 79 160 79c128 0 161 -77 161 -175c0 -34 -3 -81 -3 -129v-12c0 -44 2 -132 5 -172c-20 1 -45 2 -70 2s-50 -1 -70 -2c3 62 5 177 5 252v29c0 61 -10 131 -82 131c-70 0 -107 -52 -107 -142v-68c0 -60 2 -145 7 -202
c-22 1 -47 2 -72 2s-50 -1 -72 -2c5 56 7 167 7 227v46c0 60 -2 139 -7 205c22 -1 47 -2 72 -2s50 1 67 2zM492 700c-15 -79 -46 -116 -97 -116c-28 0 -54 11 -87 32c-29 19 -50 29 -68 29c-28 0 -44 -16 -57 -57l-27 7c14 71 41 115 96 115c29 0 53 -9 90 -33
c25 -16 46 -26 63 -26c32 0 48 17 61 58z" />
    <glyph glyph-name="ograve" unicode="&#xf2;" horiz-adv-x="612" 
d="M565 238c0 -148 -97 -255 -260 -255c-192 0 -258 136 -258 255c0 142 86 253 258 253c179 0 260 -108 260 -253zM306 442c-97 0 -117 -112 -117 -204c0 -87 20 -205 117 -205c96 0 117 114 117 205s-21 204 -117 204zM342 578l-2 -3h-40c-32 29 -87 79 -121 111
c-12 12 -20 20 -20 32c0 23 23 30 48 30c26 0 35 -8 47 -29c17 -28 56 -92 88 -141z" />
    <glyph glyph-name="oacute" unicode="&#xf3;" horiz-adv-x="612" 
d="M565 238c0 -148 -97 -255 -260 -255c-192 0 -258 136 -258 255c0 142 86 253 258 253c179 0 260 -108 260 -253zM306 442c-97 0 -117 -112 -117 -204c0 -87 20 -205 117 -205c96 0 117 114 117 205s-21 204 -117 204zM450 718c0 -12 -7 -20 -20 -32
c-33 -32 -88 -82 -120 -111h-40l-2 3c32 49 71 113 87 141c13 21 22 29 48 29c25 0 47 -7 47 -30z" />
    <glyph glyph-name="ocircumflex" unicode="&#xf4;" horiz-adv-x="612" 
d="M565 238c0 -148 -97 -255 -260 -255c-192 0 -258 136 -258 255c0 142 86 253 258 253c179 0 260 -108 260 -253zM306 442c-97 0 -117 -112 -117 -204c0 -87 20 -205 117 -205c96 0 117 114 117 205s-21 204 -117 204zM461 583l-38 -7l-115 94l-115 -94l-38 7v6
c37 40 96 108 138 159h30c42 -51 101 -119 138 -159v-6z" />
    <glyph glyph-name="otilde" unicode="&#xf5;" horiz-adv-x="612" 
d="M565 238c0 -148 -97 -255 -260 -255c-192 0 -258 136 -258 255c0 142 86 253 258 253c179 0 260 -108 260 -253zM306 442c-97 0 -117 -112 -117 -204c0 -87 20 -205 117 -205c96 0 117 114 117 205s-21 204 -117 204zM477 700c-15 -79 -46 -116 -97 -116
c-28 0 -54 11 -87 32c-29 19 -50 29 -68 29c-28 0 -44 -16 -57 -57l-27 7c14 71 41 115 96 115c29 0 53 -9 90 -33c25 -16 46 -26 63 -26c32 0 48 17 61 58z" />
    <glyph glyph-name="odieresis" unicode="&#xf6;" horiz-adv-x="612" 
d="M565 238c0 -148 -97 -255 -260 -255c-192 0 -258 136 -258 255c0 142 86 253 258 253c179 0 260 -108 260 -253zM306 442c-97 0 -117 -112 -117 -204c0 -87 20 -205 117 -205c96 0 117 114 117 205s-21 204 -117 204zM470 646c0 -35 -29 -63 -63 -63c-35 0 -63 27 -63 63
c0 35 28 62 63 62c34 0 63 -27 63 -62zM273 646c0 -35 -28 -63 -62 -63c-36 0 -64 27 -64 63c0 35 28 62 64 62c34 0 62 -27 62 -62z" />
    <glyph glyph-name="divide" unicode="&#xf7;" 
d="M287 441c0 -26 -22 -47 -47 -47c-26 0 -47 21 -47 47s21 47 47 47c25 0 47 -21 47 -47zM287 159c0 -26 -22 -47 -47 -47c-26 0 -47 21 -47 47s21 47 47 47c25 0 47 -21 47 -47zM443 269c-45 4 -131 5 -174 5h-60c-43 0 -127 -2 -172 -6c0 0 2 18 2 31s-2 31 -2 31
c45 -4 129 -4 172 -4h60c45 0 129 2 174 6c0 0 -2 -18 -2 -32s2 -31 2 -31z" />
    <glyph glyph-name="oslash" unicode="&#xf8;" horiz-adv-x="612" 
d="M565 238c0 -148 -97 -255 -260 -255c-62 0 -111 13 -148 39c-24 -30 -49 -64 -67 -92c-9 9 -25 19 -37 25c24 28 50 60 73 90c-57 50 -79 124 -79 193c0 142 86 253 258 253c54 0 102 -11 142 -33c23 31 46 63 60 84c9 -8 24 -19 36 -25c-19 -20 -44 -52 -65 -79
c58 -44 87 -116 87 -200zM397 395c-18 31 -46 51 -91 51c-101 0 -123 -114 -123 -209c0 -33 3 -76 12 -107c64 81 152 198 202 265zM430 238c0 38 -3 83 -15 118c-48 -59 -139 -179 -205 -268c17 -36 49 -58 96 -58c101 0 124 115 124 208z" />
    <glyph glyph-name="ugrave" unicode="&#xf9;" horiz-adv-x="597" 
d="M527 -2c-22 1 -47 2 -72 2s-50 -1 -67 -2c2 26 3 48 3 71h-4c-34 -48 -92 -81 -158 -81c-128 0 -161 77 -161 175c0 34 3 81 3 129v12c0 44 -2 132 -5 172c20 -1 45 -2 70 -2s49 1 70 2c-3 -62 -5 -177 -5 -252v-28c0 -62 11 -132 79 -132c70 0 110 52 110 143v67
c0 60 -2 145 -7 202c22 -1 47 -2 72 -2s50 1 72 2c-5 -56 -7 -167 -7 -227v-46c0 -60 2 -139 7 -205zM306 578l-2 -3h-40c-32 29 -87 79 -121 111c-12 12 -20 20 -20 32c0 23 23 30 48 30c26 0 35 -8 47 -29c17 -28 56 -92 88 -141z" />
    <glyph glyph-name="uacute" unicode="&#xfa;" horiz-adv-x="597" 
d="M527 -2c-22 1 -47 2 -72 2s-50 -1 -67 -2c2 26 3 48 3 71h-4c-34 -48 -92 -81 -158 -81c-128 0 -161 77 -161 175c0 34 3 81 3 129v12c0 44 -2 132 -5 172c20 -1 45 -2 70 -2s49 1 70 2c-3 -62 -5 -177 -5 -252v-28c0 -62 11 -132 79 -132c70 0 110 52 110 143v67
c0 60 -2 145 -7 202c22 -1 47 -2 72 -2s50 1 72 2c-5 -56 -7 -167 -7 -227v-46c0 -60 2 -139 7 -205zM448 718c0 -12 -7 -20 -20 -32c-33 -32 -88 -82 -120 -111h-40l-2 3c32 49 71 113 87 141c13 21 22 29 48 29c25 0 47 -7 47 -30z" />
    <glyph glyph-name="ucircumflex" unicode="&#xfb;" horiz-adv-x="597" 
d="M527 -2c-22 1 -47 2 -72 2s-50 -1 -67 -2c2 26 3 48 3 71h-4c-34 -48 -92 -81 -158 -81c-128 0 -161 77 -161 175c0 34 3 81 3 129v12c0 44 -2 132 -5 172c20 -1 45 -2 70 -2s49 1 70 2c-3 -62 -5 -177 -5 -252v-28c0 -62 11 -132 79 -132c70 0 110 52 110 143v67
c0 60 -2 145 -7 202c22 -1 47 -2 72 -2s50 1 72 2c-5 -56 -7 -167 -7 -227v-46c0 -60 2 -139 7 -205zM451 583l-38 -7l-115 94l-115 -94l-38 7v6c37 40 96 108 138 159h30c42 -51 101 -119 138 -159v-6z" />
    <glyph glyph-name="udieresis" unicode="&#xfc;" horiz-adv-x="597" 
d="M527 -2c-22 1 -47 2 -72 2s-50 -1 -67 -2c2 26 3 48 3 71h-4c-34 -48 -92 -81 -158 -81c-128 0 -161 77 -161 175c0 34 3 81 3 129v12c0 44 -2 132 -5 172c20 -1 45 -2 70 -2s49 1 70 2c-3 -62 -5 -177 -5 -252v-28c0 -62 11 -132 79 -132c70 0 110 52 110 143v67
c0 60 -2 145 -7 202c22 -1 47 -2 72 -2s50 1 72 2c-5 -56 -7 -167 -7 -227v-46c0 -60 2 -139 7 -205zM460 646c0 -35 -29 -63 -63 -63c-35 0 -63 27 -63 63c0 35 28 62 63 62c34 0 63 -27 63 -62zM263 646c0 -35 -28 -63 -62 -63c-36 0 -64 27 -64 63c0 35 28 62 64 62
c34 0 62 -27 62 -62z" />
    <glyph glyph-name="yacute" unicode="&#xfd;" horiz-adv-x="499" 
d="M497 473c-54 -108 -134 -286 -213 -473c-38 -90 -81 -202 -101 -265c-9 1 -30 2 -44 2c-13 0 -33 -1 -50 -2l-3 2c48 84 97 190 121 250c-39 102 -136 337 -205 486l3 3c20 -2 63 -2 87 -2c26 0 54 1 67 2c31 -101 86 -246 122 -332h2c40 90 100 250 123 332
c13 -1 33 -2 42 -2c13 0 31 1 46 2zM445 718c0 -12 -7 -20 -20 -32c-33 -32 -88 -82 -120 -111h-40l-2 3c32 49 71 113 87 141c13 21 22 29 48 29c25 0 47 -7 47 -30z" />
    <glyph glyph-name="thorn" unicode="&#xfe;" horiz-adv-x="616" 
d="M346 -13c-70 0 -109 20 -138 47h-5v-55c0 -79 4 -179 11 -241c-21 1 -46 2 -71 2s-50 -1 -75 -2c5 62 10 262 10 362v300c0 90 -3 268 -8 329c29 -1 50 -2 75 -2s43 1 70 2c-8 -53 -10 -213 -10 -294v-24h4c21 34 72 80 158 80c150 0 202 -122 202 -246
c0 -128 -67 -258 -223 -258zM428 236c0 94 -27 188 -112 188c-54 0 -93 -42 -107 -100c-8 -34 -9 -76 -9 -120c0 -101 37 -165 110 -165c82 0 118 87 118 197z" />
    <glyph glyph-name="ydieresis" unicode="&#xff;" horiz-adv-x="499" 
d="M497 473c-54 -108 -134 -286 -213 -473c-38 -90 -81 -202 -101 -265c-9 1 -30 2 -44 2c-13 0 -33 -1 -50 -2l-3 2c48 84 97 190 121 250c-39 102 -136 337 -205 486l3 3c20 -2 63 -2 87 -2c26 0 54 1 67 2c31 -101 86 -246 122 -332h2c40 90 100 250 123 332
c13 -1 33 -2 42 -2c13 0 31 1 46 2zM430 646c0 -35 -29 -63 -63 -63c-35 0 -63 27 -63 63c0 35 28 62 63 62c34 0 63 -27 63 -62zM233 646c0 -35 -28 -63 -62 -63c-36 0 -64 27 -64 63c0 35 28 62 64 62c34 0 62 -27 62 -62z" />
    <glyph glyph-name="fraction" horiz-adv-x="100" 
d="M-171 -115l-55 17c108 179 408 710 476 844l56 -18c-91 -152 -388 -675 -477 -843z" />
    <glyph glyph-name="fi" horiz-adv-x="589" 
d="M527 646c0 -39 -32 -71 -70 -71c-40 0 -71 32 -71 71c0 38 31 70 70 70s71 -32 71 -70zM519 -2c-25 1 -49 2 -72 2s-48 -1 -72 -2c5 55 7 167 7 227v46c0 60 0 104 -2 154h-165c-1 -51 -1 -94 -1 -124v-51c0 -60 2 -193 8 -252c-21 1 -46 2 -71 2s-50 -1 -73 -2
c6 57 8 192 8 252v51c0 30 0 73 -1 124h-81v48h81v12c0 111 78 272 233 272c19 0 35 -2 45 -6l1 -7c-10 -23 -25 -77 -31 -104l-18 -2c-5 22 -20 45 -54 45c-51 0 -65 -50 -65 -86s15 -91 19 -124h136c59 0 131 0 168 3c-5 -59 -7 -145 -7 -205v-46c0 -60 2 -170 7 -227z
" />
    <glyph glyph-name="fl" horiz-adv-x="592" 
d="M522 -2c-21 1 -47 2 -72 2s-49 -1 -72 -2c4 80 7 212 7 302v119c0 78 2 157 -2 212c-3 38 -30 67 -84 67c-77 0 -101 -60 -101 -109c0 -36 13 -83 17 -116h107v-48h-107c-1 -51 -1 -94 -1 -124v-51c0 -60 2 -193 8 -252c-21 1 -46 2 -71 2s-50 -1 -73 -2
c6 57 8 192 8 252v51c0 30 0 73 -1 124h-81v48h81v12c0 110 72 272 248 272c31 0 73 -8 91 -14c25 0 70 3 98 6c-4 -63 -8 -240 -8 -330v-119c0 -90 3 -221 8 -302z" />
    <glyph glyph-name="breve" horiz-adv-x="333" 
d="M314 717c-10 -87 -52 -143 -147 -143s-137 56 -148 142l27 9c17 -59 50 -82 121 -82s103 23 121 82z" />
    <glyph glyph-name="dotaccent" horiz-adv-x="333" 
d="M166 703c40 0 72 -33 72 -72c0 -40 -32 -73 -72 -73s-72 33 -72 73c0 39 32 72 72 72z" />
    <glyph glyph-name="ring" horiz-adv-x="333" 
d="M166 542c-75 0 -119 38 -119 107c0 75 56 112 119 112c70 0 117 -39 117 -107c0 -74 -55 -112 -117 -112zM166 738c-49 0 -71 -35 -71 -85c0 -44 23 -86 71 -86c47 0 69 35 69 86c0 45 -21 85 -69 85z" />
    <glyph glyph-name="hungarumlaut" horiz-adv-x="333" 
d="M338 716c0 -11 -8 -19 -19 -30c-32 -31 -84 -80 -115 -109h-36l-3 3c31 48 68 110 84 138c11 20 21 28 45 28s44 -7 44 -30zM170 717c0 -11 -7 -20 -18 -31c-31 -32 -79 -80 -110 -109h-37l-2 3c28 47 64 109 79 138c11 20 21 28 45 28s43 -7 43 -29z" />
    <glyph glyph-name="ogonek" horiz-adv-x="333" 
d="M264 -195c-23 -19 -58 -33 -94 -33c-54 0 -101 22 -101 83c0 54 36 94 114 145h41c-56 -47 -88 -84 -88 -131c0 -40 24 -61 59 -61c21 0 39 7 56 18z" />
    <glyph glyph-name="caron" horiz-adv-x="333" 
d="M326 729c-39 -42 -100 -111 -142 -166h-36c-42 55 -103 124 -142 166v4l40 8l120 -95l120 95l40 -8v-4z" />
    <glyph glyph-name="Lslash" horiz-adv-x="488" 
d="M88 296v12c-25 -16 -48 -30 -69 -44c-7 13 -15 27 -26 42c34 18 66 37 95 55v39c0 94 -2 188 -8 282c26 -1 52 -2 78 -2c29 0 57 1 78 2c-5 -80 -8 -162 -8 -245c30 19 60 37 90 60c8 -15 18 -29 27 -41c-41 -24 -78 -47 -117 -71v-85c0 -90 1 -187 4 -241
c71 0 161 4 245 17c-1 -20 -1 -32 -1 -40c0 -7 0 -18 1 -38c-98 1 -201 3 -286 3c-27 0 -88 -2 -111 -3c5 80 8 208 8 298z" />
    <glyph glyph-name="dotlessi" horiz-adv-x="286" 
d="M215 -2c-22 1 -47 2 -72 2s-49 -1 -72 -2c5 55 7 167 7 227v46c0 60 -2 148 -7 205c23 -1 47 -2 72 -2s50 1 72 2c-5 -59 -7 -145 -7 -205v-46c0 -60 2 -170 7 -227z" />
    <glyph glyph-name="lslash" horiz-adv-x="284" 
d="M207 404v-104c0 -90 3 -221 7 -302c-21 1 -47 2 -72 2s-49 -1 -72 -2c4 80 7 218 7 308v28c-19 -12 -41 -27 -59 -40c-7 14 -15 27 -24 40c21 12 49 29 83 50v22c0 90 -3 262 -7 342c22 -1 47 -2 72 -2s50 1 72 2c-3 -65 -7 -193 -7 -292c19 12 44 28 58 39
c7 -14 15 -28 24 -41c-21 -12 -51 -31 -82 -50z" />
    <glyph glyph-name="minus" 
d="M443 269c-45 4 -131 5 -174 5h-60c-43 0 -127 -2 -172 -6c0 0 1 20 1 31c0 10 -1 32 -1 32c45 -4 129 -5 172 -5h60c45 0 129 2 174 6c0 0 -1 -22 -1 -32s1 -31 1 -31z" />
    <glyph glyph-name="notequal" 
d="M385 550c-26 -52 -50 -101 -74 -153c44 0 98 2 132 6c0 0 -2 -22 -2 -32c0 -11 2 -31 2 -31c-40 3 -111 5 -157 5l-42 -94h24c45 0 130 2 175 6c0 0 -2 -21 -2 -31s2 -32 2 -32c-45 4 -132 5 -175 5h-47c-25 -57 -49 -113 -75 -174c-14 9 -33 18 -51 21
c25 52 50 101 74 153c-44 -1 -99 -3 -132 -6c0 0 2 20 2 32c0 10 -2 31 -2 31c40 -4 111 -5 156 -5l42 94h-25c-43 0 -128 -2 -173 -6c0 0 2 20 2 31c0 9 -2 32 -2 32c45 -4 130 -5 173 -5h48c26 58 50 113 76 175c13 -9 34 -18 51 -22z" />
    <glyph glyph-name="Delta" horiz-adv-x="700" 
d="M111 83h426c-63 171 -130 339 -194 487c-76 -149 -157 -317 -232 -487zM675 21l-21 -24c-30 1 -83 2 -137 2c-54 1 -109 1 -144 1c-86 0 -224 0 -314 -6c-9 18 -22 37 -34 52c92 177 201 398 265 533c9 20 16 40 21 61c33 12 64 26 93 44l8 -3c76 -212 175 -458 263 -660
z" />
    <glyph glyph-name="product" horiz-adv-x="700" 
d="M643 -176c0 0 -43 3 -71 3c-24 0 -70 -3 -70 -3c8 121 11 271 11 426c0 145 -2 264 -5 375c-51 3 -85 3 -154 3c-75 0 -114 0 -162 -3c-4 -80 -5 -215 -5 -375c0 -155 4 -305 11 -426c0 0 -40 3 -71 3c-29 0 -70 -3 -70 -3c7 121 12 317 12 504c0 141 -2 297 -13 350l8 7
c76 -5 211 -7 290 -7c85 0 190 2 282 7l8 -6c-11 -54 -13 -181 -13 -350c1 -188 4 -384 12 -505z" />
    <glyph glyph-name="lessequal" 
d="M432 246c-12 -15 -25 -38 -31 -56c-99 63 -255 148 -370 210v12c115 61 271 146 370 209c5 -17 17 -40 31 -55c-87 -41 -248 -126 -307 -160c59 -35 220 -119 307 -160zM443 70c-45 4 -130 5 -173 5h-62c-43 0 -126 -2 -171 -6c0 0 2 19 2 31c0 10 -2 32 -2 32
c45 -4 128 -6 171 -6h62c45 0 128 2 173 6c0 0 -2 -22 -2 -32s2 -30 2 -30z" />
    <glyph glyph-name="Omega" horiz-adv-x="800" 
d="M466 0l-14 64c106 61 169 179 169 307c0 147 -51 274 -222 274c-170 0 -218 -127 -218 -274c0 -128 61 -246 166 -307l-13 -64c-71 0 -182 0 -246 -4c0 0 3 24 3 39c0 13 -3 41 -3 41c60 -8 101 -10 141 -10l3 3c-120 66 -176 169 -176 308c0 177 89 315 343 315
s345 -138 345 -315c0 -139 -56 -242 -176 -308l3 -3c42 0 79 2 140 9c0 0 -2 -27 -2 -41s2 -38 2 -38c-31 2 -77 3 -122 4h-123z" />
    <glyph glyph-name="summation" horiz-adv-x="580" 
d="M408 292v-8c-113 -136 -216 -270 -290 -372c136 0 296 1 428 11c0 0 -3 -25 -3 -46c0 -22 3 -43 3 -43c-131 6 -241 7 -325 7c-33 0 -152 -2 -188 -4l-17 44c98 108 212 254 289 366c-63 111 -167 281 -244 394l26 40c68 -3 128 -3 187 -3c55 0 173 1 263 9
c0 0 -2 -20 -2 -36c0 -14 2 -35 2 -35c-97 9 -240 11 -333 11c54 -101 129 -223 204 -335z" />
    <glyph glyph-name="lozenge" 
d="M240 688c11 0 29 2 29 2c65 -135 114 -233 175 -344v-4c-61 -111 -110 -208 -175 -343c0 0 -18 2 -29 2s-29 -2 -29 -2c-65 135 -114 232 -175 343v4c61 111 110 209 175 344c0 0 16 -2 29 -2zM240 62c47 87 88 173 138 282c-50 109 -91 195 -138 282
c-47 -87 -88 -173 -138 -282c50 -109 91 -195 138 -282z" />
    <glyph glyph-name="oldcurrency" horiz-adv-x="626" 
d="M559 173l-61 -61l-67 66c-36 -23 -75 -36 -118 -36c-42 0 -85 13 -119 36l-67 -66l-61 61l67 66c-24 36 -36 75 -36 119s13 82 36 119l-67 66l61 61l67 -66c38 23 74 36 119 36c46 0 81 -13 120 -36l65 66l61 -61l-66 -66c25 -34 36 -78 36 -120c0 -43 -13 -82 -36 -118z
M437 358c0 69 -55 124 -124 124c-68 0 -125 -56 -125 -124s57 -124 125 -124c69 0 124 55 124 124z" />
    <glyph glyph-name="greaterequal" 
d="M449 400c-115 -62 -271 -147 -370 -210c-5 20 -19 41 -31 56c87 41 247 125 306 160c-59 34 -219 119 -306 160c12 14 24 37 31 55c99 -63 255 -148 370 -209v-12zM443 70c-45 4 -130 5 -173 5h-62c-43 0 -126 -2 -171 -6c0 0 2 19 2 31c0 10 -2 32 -2 32
c45 -4 128 -6 171 -6h62c45 0 128 2 173 6c0 0 -2 -22 -2 -32s2 -30 2 -30z" />
    <glyph glyph-name="integral" horiz-adv-x="580" 
d="M163 -147c15 0 24 4 36 18c33 39 34 151 34 430c0 259 17 309 49 362c30 49 79 88 142 88c59 0 96 -28 96 -63c0 -29 -19 -45 -47 -45c-51 0 -32 56 -64 56c-19 0 -29 -12 -38 -39c-14 -43 -14 -86 -14 -317c0 -157 -1 -258 -22 -348c-27 -120 -98 -195 -197 -195
c-41 0 -79 22 -79 59c0 34 24 48 47 48c49 0 31 -54 57 -54z" />
    <glyph glyph-name="pi" horiz-adv-x="580" 
d="M79 467h229c128 0 187 1 239 13l7 -12l-25 -67c-23 -5 -30 -9 -38 -20c-12 -16 -18 -28 -18 -136c0 -137 1 -160 7 -179c7 -19 20 -29 36 -29s28 5 44 15h4l16 -24c-26 -23 -64 -37 -102 -37c-30 0 -60 9 -77 36c-16 27 -18 50 -18 147c0 65 3 121 21 158
c13 27 33 53 38 59h-243c-2 -45 -3 -99 -3 -126c0 -83 0 -184 4 -265c0 0 -28 2 -48 2c-15 0 -49 -2 -49 -2c19 72 27 164 28 275c0 27 -1 71 -3 116h-33c-39 0 -53 -6 -68 -32l-23 7c8 88 35 101 75 101z" />
    <glyph glyph-name="approxequal" 
d="M456 409c-14 -50 -43 -103 -117 -103c-29 0 -65 11 -111 34s-67 30 -94 30c-43 0 -58 -18 -75 -62l-36 14c14 48 41 102 116 102c29 0 64 -12 111 -35c43 -21 67 -29 94 -29c43 0 59 15 77 61zM456 236c-14 -50 -43 -103 -117 -103c-29 0 -65 11 -111 34s-67 30 -94 30
c-43 0 -58 -18 -75 -62l-36 14c14 48 41 102 116 102c29 0 64 -12 111 -35c43 -21 67 -29 94 -29c43 0 59 15 77 61z" />
    <glyph glyph-name="infinity" horiz-adv-x="760" 
d="M380 344c58 79 120 119 184 119c83 0 153 -48 153 -159s-70 -159 -153 -159c-64 0 -125 39 -184 119c-58 -80 -120 -119 -184 -119c-83 0 -153 48 -153 159s70 159 153 159c64 0 126 -39 184 -119zM196 411c-58 0 -99 -32 -99 -107s41 -107 99 -107c54 0 106 48 149 107
c-43 59 -95 107 -149 107zM564 411c-54 0 -106 -48 -150 -107c44 -59 96 -107 149 -107c59 0 100 32 100 107c0 68 -41 107 -99 107z" />
    <glyph glyph-name="partialdiff" horiz-adv-x="580" 
d="M62 192c0 146 89 211 203 233c0 0 -82 65 -108 89c-41 39 -55 68 -55 105c0 26 19 57 38 73c21 19 59 40 108 60h8l36 -33c-44 -27 -65 -55 -65 -79c0 -32 22 -58 86 -113c59 -51 121 -102 151 -136c32 -37 54 -87 54 -135c0 -103 -35 -167 -92 -213
c-49 -38 -88 -52 -163 -52c-105 0 -201 44 -201 201zM186 196c0 -126 49 -159 98 -159c65 0 110 67 110 188c0 75 -42 134 -95 170c-71 -25 -113 -100 -113 -199z" />
    <glyph glyph-name="radical" 
d="M490 666c-29 1 -72 9 -98 18c-39 -239 -82 -453 -143 -724c-35 98 -73 216 -106 329h-7s-87 -40 -138 -62c8 -14 17 -35 24 -54c0 0 29 15 54 26c35 -90 73 -204 125 -364l76 32c73 307 140 558 213 799z" />
    <glyph glyph-name="apple" horiz-adv-x="500" 
 />
    <glyph glyph-name="uni00A0" horiz-adv-x="200" 
 />
    </font>
</defs>
</svg>
